<?xml version="1.0" standalone="no"?>
<!DOCTYPE svg PUBLIC "-//W3C//DTD SVG 20010904//EN"
 "http://www.w3.org/TR/2001/REC-SVG-20010904/DTD/svg10.dtd">
<svg version="1.0" xmlns="http://www.w3.org/2000/svg"
 width="887.000000pt" height="588.000000pt" viewBox="0 0 887.000000 588.000000"
 preserveAspectRatio="xMidYMid meet">

<g transform="translate(0.000000,588.000000) scale(0.100000,-0.100000)"
fill="#000000" stroke="none">
<path d="M10 5670 c0 -115 4 -210 8 -210 5 0 59 27 120 60 110 59 145 70 157
50 11 -18 26 -10 36 19 19 54 116 68 184 26 67 -41 104 -56 190 -74 45 -10
102 -30 126 -44 59 -34 115 -50 145 -43 20 5 24 13 24 42 0 22 -6 37 -15 40
-21 8 -19 26 6 58 17 21 29 26 67 26 26 0 94 9 152 20 58 11 118 20 135 20
l30 1 -28 24 c-15 13 -50 32 -77 42 -28 10 -49 22 -47 28 2 6 68 9 178 9 151
-2 187 -5 269 -27 52 -13 99 -22 104 -20 9 6 2 67 -14 126 l-11 37 -415 0
-415 0 41 -59 c22 -33 40 -64 40 -69 0 -5 -28 -23 -61 -41 -50 -26 -60 -29
-54 -14 16 38 17 70 1 86 -20 20 -20 27 -1 27 8 0 15 9 15 20 0 15 -9 22 -30
27 -17 3 -33 10 -36 14 -3 5 -189 9 -415 9 l-409 0 0 -210z m960 -69 c0 -22
-28 -31 -55 -17 l-27 14 23 5 c42 8 59 7 59 -2z"/>
<path d="M7781 5854 c-31 -39 -28 -110 5 -160 30 -45 93 -103 113 -104 9 0 11
-6 6 -17 -12 -27 -18 -81 -11 -98 5 -14 9 -13 28 5 25 23 156 104 225 139 22
11 61 23 85 26 l43 5 -57 -22 c-64 -24 -151 -86 -156 -109 -2 -13 8 -13 78 4
44 11 83 17 87 14 10 -11 -19 -37 -69 -63 -47 -24 -68 -48 -68 -79 0 -13 4
-14 20 -5 19 10 20 9 14 -15 -5 -22 -4 -24 12 -19 11 4 24 10 29 14 6 4 28 14
50 23 22 8 58 23 80 32 41 18 43 11 3 -9 -16 -8 -25 -25 -31 -56 -10 -49 -31
-80 -56 -80 -28 0 -115 -47 -143 -76 -33 -37 -88 -130 -81 -138 13 -12 126 -5
228 14 127 25 149 21 140 -22 -7 -30 -7 -31 28 -24 66 12 90 -19 40 -51 -48
-29 -113 -84 -113 -94 0 -6 21 -9 46 -7 66 4 66 -14 2 -56 -87 -56 -128 -110
-128 -170 0 -19 34 -110 45 -124 4 -4 90 25 119 40 11 6 42 30 68 54 26 24 51
44 55 44 22 -1 30 -19 30 -65 0 -27 3 -61 6 -75 3 -14 9 -47 12 -74 l7 -49 56
7 c71 8 144 43 200 94 l42 40 0 666 0 666 -534 0 -535 0 -20 -26z m629 -384
c0 -6 28 -10 65 -10 71 0 139 -22 132 -42 -2 -8 -19 -13 -39 -12 -46 1 -187
35 -194 46 -3 4 0 8 6 8 6 0 8 5 5 10 -3 6 1 10 9 10 9 0 16 -4 16 -10z m439
-54 c14 -17 -1 -31 -48 -41 l-33 -7 23 31 c25 34 40 38 58 17z"/>
<path d="M10 5306 l0 -117 41 41 c22 22 62 52 87 67 54 31 62 40 62 70 0 25
-33 37 -132 49 l-58 7 0 -117z"/>
<path d="M10 5091 l0 -82 30 31 c38 39 38 62 0 102 l-30 31 0 -82z"/>
<path d="M130 2950 c-8 -5 -10 -10 -5 -10 6 0 17 5 25 10 8 5 11 10 5 10 -5 0
-17 -5 -25 -10z"/>
<path d="M264 2949 c-2 -4 7 -9 19 -11 14 -3 24 0 24 7 0 11 -36 15 -43 4z"/>
<path d="M12 2894 c2 -15 18 -21 66 -30 41 -7 70 -19 83 -33 12 -12 33 -21 52
-22 27 0 29 -2 12 -9 -11 -5 -14 -9 -7 -9 7 -1 10 -6 7 -11 -5 -8 -11 -8 -19
-1 -7 6 -17 7 -21 3 -5 -4 -5 -1 -1 6 11 18 -35 32 -110 32 l-64 0 0 -1410 0
-1410 1148 0 c905 0 1151 3 1161 13 11 9 13 9 7 0 -5 -10 6 -13 44 -13 51 0
81 14 132 60 9 8 39 26 65 40 26 13 51 29 55 35 4 5 8 7 8 2 0 -4 27 6 59 23
84 42 255 100 326 111 33 5 83 16 110 23 28 8 70 17 95 21 25 4 90 17 145 30
55 13 134 29 175 35 41 6 89 16 105 21 17 6 91 14 166 19 136 9 317 31 419 50
30 6 69 11 87 10 17 0 38 6 46 15 10 10 18 11 22 5 4 -6 14 -9 23 -6 10 3 40
7 67 10 28 2 80 9 116 15 36 6 90 13 120 17 30 3 70 9 89 14 33 8 98 17 278
40 435 55 693 101 999 176 100 25 192 47 204 49 53 10 60 13 199 77 106 50
160 99 160 147 0 33 -24 57 -54 54 -12 -1 -15 0 -8 3 6 3 9 10 6 15 -3 6 -16
3 -31 -6 -14 -9 -27 -14 -31 -11 -3 3 0 6 6 6 7 0 12 6 12 14 0 8 6 17 13 20
6 3 1 4 -13 3 -14 -1 -24 -8 -22 -15 4 -22 -26 -24 -80 -6 -29 10 -56 17 -60
16 -5 -1 -8 3 -8 9 0 5 -5 7 -11 3 -8 -4 -7 -9 2 -15 18 -11 6 -21 -15 -13 -9
3 -13 11 -9 17 4 6 -2 8 -16 4 -18 -4 -20 -3 -10 9 9 11 7 14 -14 14 -29 0
-85 27 -103 50 -13 16 -16 17 -63 19 -16 0 -36 7 -43 15 -8 8 -29 12 -51 11
-20 -2 -37 1 -37 6 0 4 -7 5 -17 2 -11 -4 -14 -3 -9 5 4 7 3 12 -3 12 -6 0 -8
8 -5 18 5 13 4 14 -4 3 -6 -8 -17 -11 -26 -8 -21 8 -56 -12 -50 -28 3 -7 -7
-12 -26 -12 -16 0 -30 4 -30 9 0 5 -4 6 -10 3 -6 -3 -10 -1 -10 5 0 8 -6 8
-20 0 -14 -7 -20 -7 -20 0 0 5 -7 10 -16 10 -9 0 -12 -5 -8 -12 4 -7 3 -8 -5
-4 -6 4 -9 11 -6 16 3 4 -2 11 -11 14 -8 3 -13 2 -10 -3 4 -5 -3 -7 -14 -4
-10 3 -22 13 -25 24 -6 19 -33 32 -56 27 -8 -2 -13 4 -11 14 1 9 -2 19 -8 23
-9 6 -14 -8 -11 -28 1 -5 -3 -6 -9 -2 -6 3 -8 11 -5 16 4 5 3 9 -2 10 -4 0
-23 2 -42 5 -29 3 -32 2 -21 -11 7 -8 15 -13 19 -11 4 3 8 -4 8 -15 2 -24 -6
-24 -24 -2 -10 13 -16 15 -19 6 -3 -7 -12 -13 -20 -13 -8 0 -14 -7 -14 -15 0
-10 10 -15 34 -15 19 0 37 -4 40 -9 4 -5 -2 -7 -13 -4 -10 3 -22 -1 -26 -8 -5
-7 -4 -10 3 -5 6 3 13 2 17 -4 3 -5 20 -10 36 -10 21 0 29 -4 25 -12 -3 -7 -9
-21 -12 -30 -8 -22 -24 -24 -24 -3 0 8 5 15 10 15 15 0 12 16 -2 18 -7 1 -31
3 -53 4 -22 1 -46 8 -53 15 -7 6 -19 10 -26 7 -17 -7 -27 18 -15 37 7 11 13 9
29 -11 l20 -25 -1 25 c0 14 -7 34 -15 45 -15 20 -15 20 -34 -3 -10 -12 -21
-18 -24 -13 -4 5 0 12 6 14 10 4 9 8 -2 16 -23 16 -29 13 -25 -10 3 -17 0 -20
-15 -16 -13 3 -17 1 -13 -10 5 -11 -4 -10 -36 6 -22 12 -41 26 -41 31 0 5 -6
7 -13 4 -8 -3 -28 8 -45 24 -25 23 -34 27 -42 17 -8 -9 -7 -14 1 -17 7 -2 9
-10 5 -16 -8 -13 -27 -16 -25 -4 1 4 0 10 -1 15 -1 4 -3 12 -4 19 0 6 -7 13
-14 16 -8 2 -10 -2 -6 -15 6 -17 5 -16 -8 1 -8 11 -26 20 -39 21 -13 1 -35 5
-48 9 -16 6 -22 5 -19 -4 2 -6 6 -10 10 -8 3 2 15 -5 26 -15 15 -14 21 -15 25
-5 5 12 7 1 11 -44 1 -7 8 -19 16 -26 12 -10 10 -10 -12 -1 -15 7 -25 15 -23
20 3 4 -4 11 -16 14 -15 5 -18 10 -10 18 11 11 -4 22 -56 46 -13 6 -20 16 -17
24 6 17 -23 31 -32 15 -4 -6 -3 -8 4 -4 7 4 10 -4 10 -24 -1 -30 -11 -39 -23
-20 -3 6 -18 10 -33 10 -20 0 -23 3 -13 9 9 6 22 6 31 1 14 -7 16 -4 12 19 -3
23 -8 28 -25 23 -17 -4 -19 -2 -13 13 4 11 2 22 -6 27 -23 14 -29 9 -26 -24 2
-20 8 -32 15 -31 19 4 16 -14 -3 -21 -21 -8 -26 -8 -21 2 3 4 -6 15 -19 25
-13 10 -24 15 -24 11 0 -4 8 -13 17 -20 34 -24 8 -23 -41 2 -55 28 -77 51 -68
73 4 10 7 11 10 3 2 -7 8 -9 13 -6 12 7 -19 33 -39 34 -7 0 -12 -6 -11 -12 4
-34 -1 -42 -16 -22 -17 23 -19 38 -4 28 8 -4 8 -1 1 12 -5 11 -7 24 -5 31 3 7
-3 10 -15 6 -11 -2 -23 0 -26 6 -4 6 -2 11 3 11 19 0 12 18 -10 23 -18 5 -20
2 -16 -19 5 -28 0 -29 -27 -9 -25 19 -36 19 -36 0 0 -23 -15 -19 -115 31 -59
30 -91 52 -88 59 2 7 -1 16 -6 20 -6 3 -9 11 -6 16 6 9 -15 13 -43 10 -7 -1
-15 5 -18 14 -4 10 -13 13 -26 9 -15 -4 -18 -3 -13 7 6 9 4 11 -7 6 -10 -3
-24 4 -36 18 l-21 24 -38 -19 c-36 -17 -62 -18 -34 -1 7 5 11 13 7 19 -8 13
-46 23 -46 11 0 -15 -29 2 -35 21 -4 12 -30 27 -70 41 -35 13 -61 27 -59 31 3
4 -9 0 -25 -10 -49 -27 -43 -32 36 -34 30 -1 31 -2 15 -14 -10 -8 -12 -13 -4
-14 6 0 12 -7 12 -15 0 -8 9 -15 20 -15 11 0 20 5 20 10 0 6 -7 10 -16 10 -25
0 -10 25 17 27 l24 2 -25 -8 c-17 -6 -19 -9 -7 -10 9 -1 17 -8 17 -16 0 -8 5
-15 11 -15 6 0 9 -7 6 -15 -4 -8 -2 -17 4 -20 5 -4 8 -2 7 3 -3 11 2 12 30 11
14 0 14 -2 -3 -9 -20 -9 -20 -9 0 -9 11 -1 31 -8 43 -17 15 -11 22 -12 22 -3
0 7 3 9 7 5 13 -13 -26 -33 -55 -29 -26 4 -26 4 -8 -11 11 -9 16 -16 10 -16
-5 0 -2 -5 6 -10 12 -8 11 -10 -7 -10 -12 0 -24 4 -28 9 -3 6 -19 8 -36 6 -36
-4 -35 16 2 26 27 8 25 10 -13 13 -17 1 -30 -4 -33 -13 -5 -13 -7 -13 -15 -1
-6 9 -5 18 3 23 8 6 7 7 -4 4 -9 -3 -26 1 -37 9 -17 11 -21 12 -25 0 -3 -7 0
-20 6 -27 7 -8 1 -4 -13 7 -14 12 -34 24 -45 28 -16 6 -17 9 -5 16 9 6 17 5
22 -3 5 -8 8 -6 8 6 0 9 -7 17 -16 17 -10 0 -14 6 -10 15 5 14 -7 20 -29 15
-12 -3 -53 -3 -75 0 -10 1 -7 4 7 10 12 5 34 7 48 4 19 -3 26 -1 23 8 -3 8
-23 14 -49 15 -153 6 -190 12 -226 35 -21 12 -42 22 -46 20 -5 -1 -6 2 -3 7 4
5 -2 17 -11 27 -17 17 -17 17 5 12 12 -3 20 -3 17 2 -3 4 -16 10 -30 12 -13 3
-22 1 -19 -3 9 -15 -6 -10 -36 12 -17 13 -35 19 -46 15 -9 -3 -23 -1 -30 5
-10 8 -14 8 -14 0 0 -6 12 -13 28 -17 47 -10 49 -14 5 -10 -30 3 -43 0 -46
-10 -3 -8 -4 -7 -3 3 1 10 -9 24 -22 31 -28 14 -44 16 -22 2 8 -5 12 -11 9
-14 -3 -3 -26 6 -52 19 -25 14 -50 24 -54 23 -16 -3 -83 15 -83 22 0 5 -7 16
-16 24 -9 9 -11 16 -4 16 6 0 8 5 4 12 -5 8 3 9 29 5 21 -3 37 -2 37 3 0 16
-16 19 -53 10 -21 -4 -37 -4 -37 1 0 5 -5 9 -11 9 -6 0 -19 10 -30 23 -14 16
-18 18 -19 7 0 -9 5 -21 11 -27 8 -8 0 -9 -32 -2 -24 6 -45 14 -47 20 -2 5
-14 9 -26 9 -34 0 -120 31 -133 49 -8 11 -12 12 -13 4 0 -7 -9 -13 -19 -13
-11 0 -22 6 -24 13 -3 6 -6 3 -6 -8 -1 -12 -4 -16 -9 -9 -7 11 -132 47 -149
43 -4 -1 -21 3 -38 10 -16 7 -40 10 -52 8 -13 -2 -23 -1 -23 2 0 3 -14 7 -32
8 -17 1 -35 8 -40 15 -5 9 -8 10 -8 1 0 -8 -12 -10 -35 -6 -23 4 -35 2 -35 -6
0 -6 -5 -11 -10 -11 -6 0 -9 5 -8 11 3 10 -47 28 -127 46 -16 3 -32 9 -35 12
-3 4 -21 4 -40 0 -29 -5 -31 -7 -10 -9 14 -1 31 -2 39 -1 7 2 11 -1 8 -6 -3
-4 8 -8 23 -9 31 -1 95 -28 121 -51 9 -8 32 -15 50 -17 19 -2 45 -7 59 -13 40
-17 117 -42 142 -47 54 -10 78 -19 72 -27 -3 -5 -1 -9 5 -9 5 0 11 6 14 13 4
10 7 9 18 0 7 -7 22 -13 33 -13 18 0 19 -1 1 -20 -18 -20 -51 -28 -40 -10 3 6
1 10 -4 10 -6 0 -11 -5 -11 -11 0 -5 -5 -7 -10 -4 -6 4 -8 11 -5 16 4 5 -5 9
-18 9 -18 0 -24 -5 -22 -17 1 -10 0 -12 -2 -5 -3 6 -9 12 -14 12 -16 0 -10 18
9 24 9 3 0 4 -20 3 -20 -2 -34 1 -32 5 4 7 -6 10 -73 24 -13 2 -23 0 -23 -6 0
-5 11 -10 24 -10 14 0 28 -5 31 -10 4 -6 12 -7 18 -4 7 4 6 1 -2 -7 -10 -11
-15 -11 -18 -1 -7 18 -21 15 -28 -8 -3 -11 -11 -20 -17 -20 -7 0 -6 5 1 14 9
11 9 16 0 22 -8 4 -9 3 -5 -5 5 -8 -2 -11 -26 -9 -19 1 -40 -2 -47 -7 -10 -6
-12 -4 -6 5 6 10 4 12 -9 7 -9 -4 -15 -3 -11 3 3 5 -10 6 -31 3 -29 -5 -35 -3
-29 7 6 10 3 12 -13 8 -13 -4 -23 0 -26 8 -3 8 -13 14 -23 14 -10 1 -29 8 -43
16 -18 11 -20 14 -5 10 19 -6 20 -6 1 9 -10 8 -24 11 -30 8 -5 -4 -20 -8 -32
-9 -17 -2 -21 2 -17 13 5 13 -3 15 -46 12 -28 -2 -52 0 -54 5 -2 5 -17 10 -35
11 -21 2 -42 13 -59 31 -17 18 -24 22 -20 11 6 -15 3 -17 -16 -12 -31 10 -45
25 -22 25 10 0 15 3 12 6 -3 4 -34 8 -67 9 -33 2 -67 9 -75 15 -9 8 -29 10
-50 7 -21 -4 -33 -2 -30 4 4 5 -6 14 -20 19 -33 13 -38 13 -30 0 10 -16 -11
-12 -25 5 -9 11 -17 12 -32 4 -19 -10 -19 -10 -3 15 10 14 13 26 7 26 -6 0
-19 3 -29 6 -15 5 -15 4 -3 -5 11 -8 11 -11 2 -11 -7 0 -15 7 -18 15 -4 9 -18
15 -38 14 -27 0 -28 -2 -11 -9 15 -7 7 -9 -30 -8 -58 2 -73 7 -54 19 9 6 -3 7
-30 3 -32 -5 -42 -4 -37 4 4 7 2 12 -5 12 -7 0 -9 3 -6 6 13 14 -62 42 -121
47 -34 2 -62 1 -62 -3 0 -4 -7 -7 -15 -7 -8 0 -13 2 -10 5 5 6 -12 22 -49 46
-19 12 -31 15 -35 7 -8 -13 -61 -1 -60 14 0 6 -7 11 -16 13 -8 2 -14 -1 -13
-6 2 -6 -1 -10 -7 -10 -5 -1 -9 7 -7 16 2 11 0 13 -5 6 -10 -14 -46 -14 -54
-1 -4 5 -26 11 -50 13 -99 9 -139 16 -134 25 3 4 11 6 18 4 7 -3 43 -7 81 -9
77 -5 78 9 1 18 -70 8 -84 11 -91 18 -3 4 -16 3 -28 -2 -28 -10 -66 8 -45 21
10 6 4 9 -19 9 -20 0 -35 6 -39 15 -4 12 -14 14 -39 11 -27 -5 -32 -3 -28 9 5
13 2 14 -20 5 -14 -5 -25 -6 -24 -2 5 17 -24 50 -48 56 -14 4 -24 9 -21 12 8
9 77 -16 77 -27 0 -5 5 -9 11 -9 5 0 7 5 3 12 -5 8 -3 8 7 2 8 -5 23 -9 34
-10 11 0 62 -7 114 -15 74 -10 95 -11 99 -1 2 7 11 12 20 12 15 0 15 -2 2 -11
-12 -9 -12 -10 3 -5 10 3 28 6 39 6 31 0 16 10 -28 20 -24 6 -41 5 -45 -1 -3
-6 -24 -6 -57 2 -29 6 -50 15 -46 20 3 5 -10 9 -28 9 -25 0 -29 3 -18 10 11 7
0 10 -40 11 -30 1 -64 3 -75 5 -39 5 -190 33 -224 40 -29 6 -33 5 -29 -12z
m133 -107 c27 -4 27 -5 -4 -3 -21 0 -36 7 -38 16 -3 10 -2 11 4 3 4 -6 22 -13
38 -16z m760 -237 c3 -5 1 -10 -4 -10 -6 0 -11 5 -11 10 0 6 2 10 4 10 3 0 8
-4 11 -10z m-197 -15 c-10 -11 -48 -14 -48 -4 0 5 12 9 27 9 14 0 24 -2 21 -5z
m322 -15 c0 -5 -7 -10 -16 -10 -8 0 -12 5 -9 10 3 6 10 10 16 10 5 0 9 -4 9
-10z m40 0 c0 -5 -5 -10 -11 -10 -5 0 -7 5 -4 10 3 6 8 10 11 10 2 0 4 -4 4
-10z m-65 -30 c3 -5 -1 -10 -9 -10 -8 0 -18 5 -21 10 -3 6 1 10 9 10 8 0 18
-4 21 -10z m128 -27 c-7 -2 -21 -2 -30 0 -10 3 -4 5 12 5 17 0 24 -2 18 -5z
m57 -13 c0 -5 -4 -10 -10 -10 -5 0 -10 5 -10 10 0 6 5 10 10 10 6 0 10 -4 10
-10z m88 -6 c12 -4 22 -13 22 -21 0 -10 -4 -11 -19 -3 -14 7 -22 7 -26 0 -4
-6 -11 -8 -16 -4 -5 3 -6 11 -2 17 4 7 0 6 -10 -2 -10 -7 -17 -9 -17 -3 0 18
31 26 68 16z m76 -31 c4 -10 1 -11 -13 -4 -10 6 -22 7 -26 3 -5 -4 -5 -2 -2 4
9 15 35 13 41 -3z m46 -44 c0 -5 -4 -9 -8 -9 -5 0 -9 7 -9 15 0 8 4 12 9 9 4
-3 8 -9 8 -15z m60 -9 c8 -5 11 -10 5 -10 -5 0 -17 5 -25 10 -8 5 -10 10 -5
10 6 0 17 -5 25 -10z m60 -20 c0 -5 -5 -10 -11 -10 -5 0 -7 5 -4 10 3 6 8 10
11 10 2 0 4 -4 4 -10z m-135 -20 c3 -6 -1 -7 -9 -4 -18 7 -21 14 -7 14 6 0 13
-4 16 -10z m93 -41 c-13 -8 -48 0 -48 12 0 5 -7 9 -15 9 -8 0 -15 4 -15 9 0 5
20 1 44 -7 25 -9 40 -19 34 -23z m249 15 c-3 -3 -12 -4 -19 -1 -8 3 -5 6 6 6
11 1 17 -2 13 -5z m58 -4 c3 -5 -1 -10 -9 -10 -9 0 -16 5 -16 10 0 6 4 10 9
10 6 0 13 -4 16 -10z m50 -20 c8 -13 -5 -13 -25 0 -13 8 -13 10 2 10 9 0 20
-4 23 -10z m670 -40 c3 -5 -1 -10 -10 -10 -9 0 -13 5 -10 10 3 6 8 10 10 10 2
0 7 -4 10 -10z m95 4 c0 -8 -19 -13 -24 -6 -3 5 1 9 9 9 8 0 15 -2 15 -3z
m-563 -20 c-3 -3 -12 -4 -19 -1 -8 3 -5 6 6 6 11 1 17 -2 13 -5z m368 -54 c3
-5 2 -10 -4 -10 -5 0 -13 5 -16 10 -3 6 -2 10 4 10 5 0 13 -4 16 -10z m230
-11 c24 -6 46 -18 50 -26 9 -25 -3 -28 -23 -5 -11 13 -27 20 -40 17 -11 -2
-28 3 -39 10 -22 18 -7 19 52 4z m75 -24 c0 -8 -2 -15 -4 -15 -2 0 -6 7 -10
15 -3 8 -1 15 4 15 6 0 10 -7 10 -15z m100 -1 c0 -2 -7 -4 -15 -4 -8 0 -15 4
-15 10 0 5 7 7 15 4 8 -4 15 -8 15 -10z m-280 2 c0 -9 -30 -14 -35 -6 -4 6 3
10 14 10 12 0 21 -2 21 -4z m70 -6 c0 -5 -7 -7 -15 -4 -8 4 -15 8 -15 10 0 2
7 4 15 4 8 0 15 -4 15 -10z m40 0 c0 -5 -8 -10 -17 -10 -15 0 -16 2 -3 10 19
12 20 12 20 0z m310 -11 c0 -6 9 -8 21 -4 15 5 19 4 15 -4 -10 -15 -27 -13
-50 4 -17 13 -18 15 -3 15 9 0 17 -5 17 -11z m-80 -23 c0 -3 -4 -8 -10 -11 -5
-3 -10 -1 -10 4 0 6 5 11 10 11 6 0 10 -2 10 -4z m-320 -20 c0 -2 -7 -6 -15
-10 -8 -3 -15 -1 -15 4 0 6 7 10 15 10 8 0 15 -2 15 -4z m785 -76 c3 -6 -1 -7
-9 -4 -18 7 -21 14 -7 14 6 0 13 -4 16 -10z m9 -39 c3 -5 -1 -11 -9 -15 -15
-6 -29 7 -18 18 9 9 21 8 27 -3z m296 -61 c0 -5 -5 -10 -11 -10 -5 0 -7 5 -4
10 3 6 8 10 11 10 2 0 4 -4 4 -10z m-223 -46 c-3 -3 -12 -4 -19 -1 -8 3 -5 6
6 6 11 1 17 -2 13 -5z m706 -42 c-10 -11 -21 -17 -25 -15 -11 6 14 32 30 33 8
0 6 -7 -5 -18z m-793 -33 c0 -6 -4 -7 -10 -4 -5 3 -10 11 -10 16 0 6 5 7 10 4
6 -3 10 -11 10 -16z m310 -13 c0 -3 -4 -8 -10 -11 -5 -3 -10 -1 -10 4 0 6 5
11 10 11 6 0 10 -2 10 -4z m450 -5 c0 -5 -6 -14 -14 -20 -11 -9 -16 -9 -21 0
-4 6 -1 15 6 20 18 11 29 11 29 0z m156 -3 c5 -8 2 -9 -9 -5 -10 4 -17 1 -17
-5 0 -6 -3 -9 -6 -5 -7 7 4 27 16 27 5 0 12 -5 16 -12z m-108 -39 c-12 -7 -24
-7 -35 0 -15 9 -12 10 17 10 29 0 32 -1 18 -10z m-673 -29 c3 -5 1 -10 -4 -10
-6 0 -11 5 -11 10 0 6 2 10 4 10 3 0 8 -4 11 -10z m775 0 c0 -5 -10 -10 -22
-9 -22 0 -22 1 -3 9 11 5 21 9 23 9 1 1 2 -3 2 -9z m-338 -18 c-6 -2 -9 -9 -5
-15 4 -7 0 -8 -11 -4 -10 4 -20 7 -22 7 -2 0 -4 6 -4 14 0 9 8 12 28 8 15 -3
21 -7 14 -10z m152 -10 c29 -14 34 -21 22 -25 -9 -4 -13 -13 -10 -22 4 -10 0
-15 -15 -15 -12 0 -21 5 -21 10 0 6 6 10 13 10 20 0 -16 20 -37 20 -20 0 -20
0 0 -15 21 -16 8 -20 -16 -5 -13 9 -12 13 8 29 15 13 18 21 10 24 -7 3 -8 6
-2 6 6 1 28 -7 48 -17z m-109 -2 c3 -5 1 -10 -4 -10 -6 0 -11 5 -11 10 0 6 2
10 4 10 3 0 8 -4 11 -10z m189 -9 c6 -10 -24 -25 -32 -16 -3 3 0 5 7 5 7 0 9
5 6 10 -3 6 -2 10 4 10 5 0 12 -4 15 -9z m126 -18 c0 -10 -4 -14 -8 -8 -4 6
-11 13 -16 18 -5 4 -2 7 7 7 10 0 17 -8 17 -17z m-365 -3 c-3 -5 -10 -10 -16
-10 -5 0 -9 5 -9 10 0 6 7 10 16 10 8 0 12 -4 9 -10z m403 -15 c-3 -3 -9 2
-12 12 -6 14 -5 15 5 6 7 -7 10 -15 7 -18z m310 -18 c7 -5 11 -12 9 -14 -5 -4
-77 26 -77 32 0 8 53 -6 68 -18z m-478 -1 c0 -3 -4 -8 -10 -11 -5 -3 -10 -1
-10 4 0 6 5 11 10 11 6 0 10 -2 10 -4z m133 -23 c-7 -2 -19 -2 -25 0 -7 3 -2
5 12 5 14 0 19 -2 13 -5z m7 -32 c0 -6 -9 -9 -19 -8 -11 0 -17 5 -15 9 7 11
34 10 34 -1z m-16 -42 c-3 -5 -10 -7 -15 -3 -5 3 -7 10 -3 15 3 5 10 7 15 3 5
-3 7 -10 3 -15z m161 1 c3 -5 2 -10 -4 -10 -5 0 -13 5 -16 10 -3 6 -2 10 4 10
5 0 13 -4 16 -10z m180 -37 c3 -9 0 -20 -7 -25 -19 -12 -28 -10 -28 7 0 8 5
15 11 15 5 0 7 5 4 10 -4 6 -11 7 -17 4 -7 -4 -8 -2 -4 4 9 14 33 5 41 -15z
m-440 6 c11 -17 -1 -21 -15 -4 -8 9 -8 15 -2 15 6 0 14 -5 17 -11z m270 1 c-3
-5 -10 -10 -16 -10 -5 0 -9 5 -9 10 0 6 7 10 16 10 8 0 12 -4 9 -10z m105 -10
c0 -5 -2 -10 -4 -10 -3 0 -8 5 -11 10 -3 6 -1 10 4 10 6 0 11 -4 11 -10z
m-4445 -29 c3 -5 2 -12 -3 -15 -5 -3 -9 1 -9 9 0 17 3 19 12 6z m4240 -1 c3
-5 1 -10 -4 -10 -6 0 -11 5 -11 10 0 6 2 10 4 10 3 0 8 -4 11 -10z m-4275 -4
c0 -2 -7 -7 -16 -10 -8 -3 -12 -2 -9 4 6 10 25 14 25 6z m70 -30 c0 -3 -4 -8
-10 -11 -5 -3 -10 -1 -10 4 0 6 5 11 10 11 6 0 10 -2 10 -4z m4880 -6 c0 -5
-2 -10 -4 -10 -3 0 -8 5 -11 10 -3 6 -1 10 4 10 6 0 11 -4 11 -10z m105 -30
c3 -6 -1 -7 -9 -4 -18 7 -21 14 -7 14 6 0 13 -4 16 -10z m168 -55 c-3 -9 -8
-14 -10 -11 -3 3 -2 9 2 15 9 16 15 13 8 -4z m387 5 c0 -5 -5 -10 -11 -10 -5
0 -7 5 -4 10 3 6 8 10 11 10 2 0 4 -4 4 -10z m-5422 -24 c-7 -8 -15 -12 -17
-11 -5 6 10 25 20 25 5 0 4 -6 -3 -14z m5242 -60 c0 -9 -7 -12 -20 -9 -11 3
-17 9 -14 14 8 14 34 10 34 -5z m56 -63 c-7 -7 -26 7 -26 19 0 6 6 6 15 -2 9
-7 13 -15 11 -17z m274 17 c0 -5 -5 -10 -11 -10 -5 0 -7 5 -4 10 3 6 8 10 11
10 2 0 4 -4 4 -10z m-565 -30 c3 -5 1 -10 -4 -10 -6 0 -11 5 -11 10 0 6 2 10
4 10 3 0 8 -4 11 -10z m-5180 -10 c3 -5 2 -10 -4 -10 -5 0 -13 5 -16 10 -3 6
-2 10 4 10 5 0 13 -4 16 -10z m5873 -19 c3 -8 -1 -12 -9 -9 -7 2 -15 10 -17
17 -3 8 1 12 9 9 7 -2 15 -10 17 -17z m-5333 -71 c3 -5 -1 -10 -10 -10 -9 0
-13 5 -10 10 3 6 8 10 10 10 2 0 7 -4 10 -10z m-305 -30 c0 -5 -5 -10 -11 -10
-5 0 -7 5 -4 10 3 6 8 10 11 10 2 0 4 -4 4 -10z m50 -21 c0 -6 -4 -7 -10 -4
-5 3 -10 11 -10 16 0 6 5 7 10 4 6 -3 10 -11 10 -16z m-46 -11 c-3 -4 -11 -5
-19 -1 -21 7 -19 12 4 10 11 0 18 -5 15 -9z m74 -16 c-10 -2 -18 -9 -18 -15 0
-7 -4 -6 -10 3 -7 11 -5 17 8 21 9 4 22 4 27 0 6 -3 2 -7 -7 -9z m-85 -22 c-3
-11 -9 -17 -15 -14 -5 3 -4 12 3 20 16 19 18 18 12 -6z m-53 -8 c0 -4 -9 -8
-19 -8 -11 0 -17 4 -15 8 3 4 12 8 20 8 8 0 14 -4 14 -8z m486 -11 c-3 -5 -17
-8 -32 -8 -18 0 -22 2 -13 8 18 11 52 11 45 0z m-386 -10 c0 -6 -4 -13 -10
-16 -5 -3 -10 1 -10 9 0 9 5 16 10 16 6 0 10 -4 10 -9z m97 3 c-3 -3 -12 -4
-19 -1 -8 3 -5 6 6 6 11 1 17 -2 13 -5z m93 -50 c0 -2 -7 -4 -15 -4 -8 0 -15
4 -15 10 0 5 7 7 15 4 8 -4 15 -8 15 -10z m-45 -25 c-4 -5 -13 -9 -21 -9 -12
0 -12 2 -2 14 14 15 32 11 23 -5z m5345 -19 c0 -5 -5 -10 -11 -10 -5 0 -7 5
-4 10 3 6 8 10 11 10 2 0 4 -4 4 -10z m150 1 c0 -6 -4 -12 -8 -15 -5 -3 -9 1
-9 9 0 8 4 15 9 15 4 0 8 -4 8 -9z m-87 -36 c-3 -9 -8 -14 -10 -11 -3 3 -2 9
2 15 9 16 15 13 8 -4z m-5586 -23 c-23 -5 -47 4 -47 17 0 6 13 5 33 -2 23 -8
27 -12 14 -15z m800 22 c-3 -3 -12 -4 -19 -1 -8 3 -5 6 6 6 11 1 17 -2 13 -5z
m203 -4 c0 -5 -7 -10 -16 -10 -8 0 -12 5 -9 10 3 6 10 10 16 10 5 0 9 -4 9
-10z m4530 -12 c0 -6 -6 -5 -15 2 -8 7 -15 14 -15 16 0 2 7 1 15 -2 8 -4 15
-11 15 -16z m-4470 -10 c0 -4 -9 -8 -20 -8 -11 0 -20 4 -20 9 0 6 9 9 20 8 11
-1 20 -5 20 -9z m-932 -60 c3 -25 1 -26 -30 -22 -59 8 -117 28 -123 42 -4 10
12 12 73 10 75 -3 77 -4 80 -30z m152 22 c0 -5 -2 -10 -4 -10 -3 0 -8 5 -11
10 -3 6 -1 10 4 10 6 0 11 -4 11 -10z m148 -25 c-3 -3 -9 2 -12 12 -6 14 -5
15 5 6 7 -7 10 -15 7 -18z m4662 15 c0 -5 -4 -10 -10 -10 -5 0 -10 5 -10 10 0
6 5 10 10 10 6 0 10 -4 10 -10z m-97 -7 c-7 -2 -21 -2 -30 0 -10 3 -4 5 12 5
17 0 24 -2 18 -5z m-4717 -44 c-11 -7 -14 -14 -8 -18 6 -4 7 -12 3 -19 -6 -10
-10 -10 -20 1 -9 12 -8 18 4 31 9 9 22 16 28 16 7 0 4 -5 -7 -11z m42 -6 c-2
-9 -8 -18 -15 -20 -7 -3 -9 3 -6 16 6 25 26 28 21 4z m152 11 c0 -8 -19 -13
-24 -6 -3 5 1 9 9 9 8 0 15 -2 15 -3z m-367 -21 c-7 -2 -19 -2 -25 0 -7 3 -2
5 12 5 14 0 19 -2 13 -5z m6 -49 c17 -4 31 -13 31 -20 0 -19 -13 -18 -57 6
-38 20 -30 25 26 14z m426 -14 c3 -5 1 -10 -5 -10 -6 0 -9 -4 -5 -10 3 -5 12
-7 20 -3 9 3 15 -1 15 -9 0 -7 -9 -14 -20 -15 -11 -1 -18 2 -15 8 4 5 2 9 -4
9 -5 0 -12 -6 -14 -12 -3 -7 -4 2 -4 19 2 32 19 44 32 23z m235 -15 c13 -14
20 -25 15 -25 -4 0 -18 11 -31 25 -13 14 -20 25 -15 25 4 0 18 -11 31 -25z
m3460 5 c0 -5 -7 -7 -15 -4 -8 4 -15 8 -15 10 0 2 7 4 15 4 8 0 15 -4 15 -10z
m-3765 -30 c4 -6 -9 -10 -32 -9 -30 0 -34 2 -18 9 27 12 43 12 50 0z m970 -10
c11 -13 14 -20 6 -20 -13 0 -41 24 -41 34 0 12 18 5 35 -14z m-1174 -28 c8 1
25 0 39 -1 20 -2 16 -5 -20 -16 -39 -13 -46 -12 -62 2 -25 23 -22 34 5 24 13
-5 30 -9 38 -9z m3629 14 c0 -2 -7 -7 -16 -10 -8 -3 -12 -2 -9 4 6 10 25 14
25 6z m-3298 -22 c31 -10 7 -22 -34 -17 -25 4 -35 9 -32 18 5 13 23 13 66 -1z
m28 -55 c11 -19 10 -20 -9 -10 -27 15 -36 31 -17 31 8 0 20 -9 26 -21z m780
-19 c0 -5 -2 -10 -4 -10 -3 0 -8 5 -11 10 -3 6 -1 10 4 10 6 0 11 -4 11 -10z"/>
<path d="M80 2846 c0 -2 11 -6 25 -8 13 -3 22 -1 19 3 -5 9 -44 13 -44 5z"/>
<path d="M470 2846 c0 -2 7 -6 15 -10 8 -3 15 -1 15 4 0 6 -7 10 -15 10 -8 0
-15 -2 -15 -4z"/>
<path d="M1623 2843 c9 -2 25 -2 35 0 9 3 1 5 -18 5 -19 0 -27 -2 -17 -5z"/>
<path d="M6325 2803 c-11 -2 -27 -7 -35 -10 -8 -3 -30 -5 -47 -4 -25 2 -33 -2
-33 -15 0 -14 6 -16 38 -11 20 4 136 12 257 18 121 7 224 15 229 20 8 7 -370
9 -409 2z"/>
<path d="M7190 2788 c-131 -23 -163 -27 -174 -20 -5 3 -41 4 -80 3 -39 -1
-125 -3 -191 -5 -74 -2 -139 -9 -170 -19 -27 -8 -104 -27 -170 -40 -90 -19
-114 -27 -96 -33 21 -6 23 -11 17 -52 -3 -25 -7 -47 -9 -49 -2 -1 -42 -6 -90
-9 -47 -4 -84 -10 -82 -14 3 -4 16 -5 29 -3 37 7 172 -17 155 -28 -11 -7 -10
-9 4 -9 28 0 20 -18 -10 -23 -18 -3 -12 -4 17 -5 60 -2 87 6 93 28 3 12 14 18
38 18 69 0 74 2 90 37 11 24 13 37 5 45 -7 7 -3 10 13 10 32 0 63 -19 54 -33
-11 -18 -13 -41 -2 -30 5 5 11 22 15 39 5 25 3 31 -13 31 -44 -1 -76 3 -70 9
11 11 149 15 142 4 -3 -5 0 -11 7 -11 7 -1 20 -2 28 -3 16 -1 16 -48 0 -54 -4
-2 -6 -11 -3 -22 4 -16 0 -18 -30 -14 -20 2 -38 0 -42 -6 -3 -5 -19 -7 -35 -3
-24 4 -30 2 -30 -11 0 -17 8 -17 170 -1 19 2 41 4 48 4 6 1 12 10 12 21 0 11
5 20 10 20 6 0 20 10 33 23 12 12 21 25 20 30 -5 14 15 7 21 -8 3 -8 17 -15
30 -15 18 0 24 4 20 15 -8 19 0 19 38 -1 16 -9 27 -11 24 -6 -14 24 40 -4 67
-34 26 -28 32 -30 44 -18 19 19 37 18 29 -2 -5 -13 6 -15 90 -13 68 2 98 7
101 16 6 16 43 17 43 2 0 -9 21 -10 70 -6 41 3 70 2 70 -4 0 -5 7 -9 15 -9 8
0 15 4 15 9 0 5 11 8 25 7 13 -2 22 1 19 5 -3 5 7 11 21 15 18 4 23 10 16 18
-7 8 -3 20 15 39 l24 27 -28 -6 c-25 -5 -28 -3 -30 27 -2 30 -29 62 -43 53 -4
-2 -5 -13 -2 -25 4 -16 8 -17 14 -7 7 10 9 9 9 -4 0 -10 -7 -16 -19 -15 -12 1
-17 6 -13 16 3 9 1 12 -6 7 -20 -12 -13 7 12 33 13 15 26 35 30 46 5 16 1 20
-19 21 -21 2 -22 0 -10 -13 16 -15 20 -33 8 -33 -18 1 -43 28 -38 41 9 23
-235 21 -365 -3z m-250 -102 c0 -3 -4 -8 -10 -11 -5 -3 -10 -1 -10 4 0 6 5 11
10 11 6 0 10 -2 10 -4z m-560 -51 c0 -8 -4 -17 -10 -20 -6 -4 -10 5 -10 20 0
15 4 24 10 20 6 -3 10 -12 10 -20z m1240 4 c0 -5 -4 -9 -10 -9 -5 0 -10 7 -10
16 0 8 5 12 10 9 6 -3 10 -10 10 -16z m-755 1 c-3 -5 -12 -10 -20 -10 -7 0
-16 -6 -18 -12 -4 -9 -8 -10 -14 -2 -4 6 -15 14 -23 17 -8 3 2 5 23 4 20 0 40
3 44 6 10 10 15 8 8 -3z m-375 -10 c0 -5 -4 -10 -9 -10 -6 0 -13 5 -16 10 -3
6 1 10 9 10 9 0 16 -4 16 -10z m750 -21 c0 -12 -41 -11 -60 1 -12 7 -10 11 10
18 25 10 50 0 50 -19z m67 -2 c6 -4 19 -4 30 -1 15 5 15 4 3 -5 -8 -6 -10 -11
-5 -11 6 0 1 -6 -9 -12 -15 -8 -21 -8 -24 0 -2 7 -9 12 -16 12 -7 0 -13 6 -13
14 0 14 14 16 34 3z m-824 -59 c-2 -5 -16 -8 -31 -7 -27 0 -27 0 -4 11 14 7
22 21 23 37 1 25 2 25 8 -4 4 -16 6 -33 4 -37z m717 28 c0 -3 -4 -8 -10 -11
-5 -3 -10 -1 -10 4 0 6 5 11 10 11 6 0 10 -2 10 -4z m-60 -10 c0 -3 -4 -8 -10
-11 -5 -3 -10 -1 -10 4 0 6 5 11 10 11 6 0 10 -2 10 -4z m180 -16 c-19 -12
-50 -13 -50 -1 0 9 50 20 60 13 2 -2 -2 -7 -10 -12z m-113 -6 c-3 -3 -12 -4
-19 -1 -8 3 -5 6 6 6 11 1 17 -2 13 -5z"/>
<path d="M8241 2801 c-7 -5 -22 -6 -34 -3 -15 4 -18 2 -12 -9 6 -11 5 -11 -4
-3 -9 8 -23 9 -44 3 -18 -4 -44 -7 -59 -5 -16 2 -28 -1 -28 -7 0 -5 -7 -4 -15
3 -13 11 -14 10 -9 -4 5 -12 0 -16 -22 -16 -23 0 -26 2 -14 10 13 8 13 10 -2
10 -9 0 -29 -5 -44 -10 -28 -11 -68 -4 -59 10 11 18 -25 18 -46 -1 -27 -24
-39 -24 -40 -1 0 10 -3 12 -6 5 -5 -14 -48 -8 -71 10 -9 7 -11 5 -6 -8 5 -13
4 -16 -4 -11 -8 5 -10 1 -5 -10 5 -13 3 -15 -7 -9 -10 6 -11 2 -6 -18 3 -15 2
-27 -6 -29 -7 -3 -9 -14 -3 -34 4 -16 10 -23 12 -16 3 6 14 12 26 12 20 0 20
0 1 -15 -17 -13 -15 -14 33 -15 56 0 83 -7 83 -21 0 -5 -9 -9 -20 -9 -11 0
-23 -7 -27 -16 -3 -8 -11 -13 -18 -10 -6 2 -18 0 -26 -4 -8 -6 -16 -4 -21 3
-5 9 -10 9 -20 -1 -9 -9 -9 -12 0 -12 7 0 12 -7 12 -15 0 -8 7 -15 15 -15 8 0
15 5 15 10 0 6 4 10 10 10 5 0 7 -6 4 -13 -3 -10 4 -14 26 -15 16 0 30 3 30 8
0 5 41 7 92 5 51 -2 97 0 104 6 8 6 14 4 19 -8 6 -17 7 -17 20 0 12 17 14 17
28 -4 13 -17 21 -20 44 -14 15 3 31 12 35 18 6 9 8 9 8 0 0 -7 7 -13 16 -13
10 0 14 6 11 14 -6 14 16 16 29 3 11 -11 114 -8 114 3 0 6 12 10 26 10 14 0
23 -4 20 -9 -8 -12 45 -21 125 -21 57 0 67 3 63 15 -7 17 21 21 31 5 3 -5 13
-10 21 -10 8 0 12 5 9 10 -3 6 0 10 7 10 7 0 18 8 25 19 6 10 21 21 32 24 12
3 19 1 15 -4 -8 -14 9 -10 30 6 25 19 36 19 36 0 0 -10 10 -15 29 -15 24 0 31
6 40 31 6 18 11 56 11 85 l0 53 -82 0 c-46 0 -114 7 -152 16 -85 20 -330 35
-344 21 -2 -3 -12 -1 -21 4 -10 5 -23 5 -30 1z m-361 -33 c0 -18 -2 -20 -9 -8
-6 8 -7 18 -5 22 9 14 14 9 14 -14z m970 -82 c0 -11 -19 -15 -25 -6 -3 5 1 10
9 10 9 0 16 -2 16 -4z m-276 -64 c12 -7 -16 -22 -41 -22 -25 0 -29 10 -12 27
10 10 28 9 53 -5z m-110 -30 c-19 -5 -18 -32 1 -32 8 0 15 -4 15 -10 0 -5 -6
-10 -14 -10 -22 0 -46 11 -46 22 0 5 5 6 10 3 6 -3 10 -1 10 4 0 6 -7 11 -16
11 -8 0 -13 4 -10 9 4 5 0 12 -6 15 -7 3 -3 3 9 1 12 -3 24 -1 28 4 4 7 11 7
20 -2 11 -10 11 -13 -1 -15z m106 -22 c0 -5 -2 -10 -4 -10 -3 0 -8 5 -11 10
-3 6 -1 10 4 10 6 0 11 -4 11 -10z m60 -11 c0 -6 -4 -7 -10 -4 -5 3 -10 11
-10 16 0 6 5 7 10 4 6 -3 10 -11 10 -16z m-63 -15 c-3 -3 -12 -4 -19 -1 -8 3
-5 6 6 6 11 1 17 -2 13 -5z"/>
<path d="M2805 2784 c-320 -18 -734 -25 -835 -13 -127 14 -253 18 -267 7 -7
-5 -14 -5 -18 2 -7 11 -45 14 -45 2 0 -24 607 -214 765 -239 17 -2 46 -8 65
-13 19 -5 96 -21 170 -35 74 -14 182 -37 240 -50 58 -13 128 -27 155 -30 28
-4 58 -12 69 -17 13 -7 21 -6 27 3 7 11 9 11 9 1 0 -7 16 -20 35 -28 50 -21
58 -18 50 13 -6 27 -6 27 14 9 19 -17 21 -18 21 -2 0 9 5 14 10 11 6 -3 10
-20 10 -37 0 -17 3 -29 6 -26 11 11 11 43 1 63 -9 18 -9 19 6 6 10 -7 17 -21
17 -30 0 -9 4 -23 9 -31 10 -14 8 20 -3 85 -3 17 -3 24 0 17 3 -6 10 -10 15
-6 15 9 49 -6 49 -22 0 -8 7 -17 15 -20 8 -4 15 -13 15 -21 0 -8 -3 -12 -7
-10 -5 3 -9 -10 -10 -29 -2 -19 2 -34 7 -34 6 0 10 11 10 25 0 14 4 25 10 25
5 0 8 6 6 13 -3 6 -7 26 -10 42 -6 28 -5 29 9 11 8 -11 15 -14 15 -8 0 7 11
12 24 12 13 0 27 6 30 13 5 10 7 10 12 0 8 -19 24 -16 24 5 1 15 2 15 15 -2 8
-11 15 -16 15 -11 0 5 5 4 12 -3 8 -8 8 -15 0 -24 -14 -17 -3 -68 14 -68 7 0
16 10 18 23 3 12 7 31 9 42 3 11 5 3 6 -18 1 -36 3 -38 29 -35 25 3 27 6 27
51 0 32 4 47 13 47 7 0 17 10 22 23 8 21 9 21 9 1 1 -11 -6 -29 -14 -40 -8
-10 -15 -32 -15 -47 0 -27 2 -28 33 -22 43 10 46 12 42 33 -2 9 -4 20 -4 24
-1 4 -7 5 -15 2 -17 -6 -25 15 -16 40 6 17 7 18 13 3 3 -9 16 -17 27 -17 16 0
20 -7 20 -30 0 -23 4 -30 20 -30 12 0 20 7 20 17 0 13 3 14 12 5 19 -19 55
-15 61 7 4 15 0 18 -24 17 -19 -1 -29 3 -32 16 -6 23 -29 24 -25 2 2 -10 -3
-19 -10 -21 -9 -4 -12 5 -11 29 0 18 -4 49 -10 68 -14 46 -14 60 2 54 7 -2 13
-19 13 -37 0 -39 42 -95 57 -75 7 11 10 11 14 0 2 -6 9 -10 14 -6 5 3 14 2 20
-1 15 -10 109 -15 108 -7 -3 19 2 32 12 32 6 0 9 -9 6 -19 -4 -16 2 -20 32
-23 20 -3 37 -2 39 2 4 10 66 -1 74 -14 10 -17 98 -8 91 10 -3 9 1 14 12 14
11 0 15 -5 11 -15 -3 -9 0 -15 9 -15 8 0 15 6 15 13 0 8 3 9 8 1 4 -6 17 -16
29 -22 17 -9 22 -9 27 3 3 8 1 15 -4 15 -6 0 -9 3 -8 8 2 4 -5 18 -14 30 -15
22 -17 23 -27 5 -10 -16 -11 -15 -9 7 2 14 9 24 16 23 16 -4 16 19 0 36 -9 9
-9 12 -1 7 6 -3 14 0 16 6 3 7 6 1 6 -13 1 -15 8 -29 16 -33 9 -3 15 -18 15
-36 0 -27 2 -29 14 -18 8 8 16 23 19 34 4 17 5 17 6 -3 1 -25 5 -28 49 -38 36
-7 42 7 20 47 -31 53 -49 67 -75 57 -13 -5 -22 -5 -19 0 3 5 -4 20 -15 35 -11
14 -17 30 -14 36 3 5 2 10 -4 10 -5 0 -13 -4 -16 -10 -10 -17 -22 -11 -28 12
-9 33 -15 18 -10 -20 4 -23 10 -32 19 -28 8 3 14 1 14 -4 0 -6 -5 -10 -10 -10
-16 0 -60 31 -56 39 9 15 -14 35 -41 37 -33 1 -56 7 -63 15 -3 3 -17 9 -32 12
-20 5 -28 3 -31 -10 -4 -16 -6 -15 -12 4 -6 18 -11 20 -30 13 -13 -5 -26 -6
-29 -3 -3 4 -6 -1 -6 -10 0 -26 -17 -20 -28 11 -10 26 -10 26 -11 3 -1 -20 -3
-22 -17 -10 -25 20 -54 22 -54 2 0 -13 -5 -12 -26 8 -22 21 -24 21 -18 4 4
-11 12 -23 18 -27 7 -5 4 -8 -6 -8 -10 0 -18 6 -18 13 0 8 -3 7 -10 -3 -10
-15 -9 -16 -23 30 -4 13 -9 -67 -8 -124 0 -10 -3 -15 -6 -12 -4 4 -6 26 -4 50
1 25 -3 47 -9 51 -6 3 -8 10 -5 15 6 9 -25 30 -44 30 -6 0 -7 -8 -4 -17 6 -16
5 -16 -10 -4 -9 7 -17 10 -17 5 0 -5 -5 -2 -10 6 -9 13 -11 13 -20 0 -5 -8
-10 -11 -10 -6 0 5 -7 3 -15 -4 -13 -11 -15 -10 -10 6 4 12 0 9 -9 -6 -12 -19
-15 -21 -16 -7 0 9 -6 16 -12 15 -7 -2 -12 3 -10 10 1 6 -2 12 -8 12 -5 0 -10
-6 -11 -12 0 -7 -4 -4 -9 7 -8 19 -9 19 -9 -2 -1 -13 -5 -23 -11 -23 -14 0
-13 -27 1 -32 7 -2 5 -9 -5 -17 -14 -12 -16 -10 -17 15 -3 54 -4 59 -12 71 -4
6 -16 9 -27 6 -11 -3 -20 -1 -20 5 0 6 -9 10 -20 9 -11 -1 -20 -5 -20 -9 0 -4
-7 -8 -15 -8 -8 0 -15 4 -15 8 0 5 -18 9 -40 9 -22 0 -48 7 -58 16 -38 34
-189 40 -527 21z m570 -84 c-3 -5 -10 -10 -16 -10 -5 0 -9 5 -9 10 0 6 7 10
16 10 8 0 12 -4 9 -10z m107 -13 c3 4 3 2 2 -5 -5 -19 15 -64 25 -57 5 3 12 1
15 -3 3 -5 17 -7 31 -4 16 3 25 0 25 -8 0 -10 3 -10 15 0 11 9 14 22 10 41 -6
25 -4 27 16 22 22 -6 22 -7 3 -14 -10 -4 -14 -8 -8 -8 15 -1 25 -39 13 -47 -5
-3 -9 -22 -10 -42 0 -30 -2 -33 -9 -17 -4 12 -15 27 -23 34 -14 11 -16 9 -13
-21 2 -18 1 -23 -1 -11 -4 23 -33 40 -33 20 0 -7 -7 -3 -15 7 -15 20 -15 20
-16 0 -1 -10 -1 -28 0 -39 l2 -20 -16 20 c-9 11 -21 19 -26 17 -6 -1 -9 3 -8
10 4 35 -3 40 -16 10 -12 -28 -17 -32 -34 -22 -26 14 -29 13 -33 -7 -2 -13 -8
-8 -20 17 -15 31 -18 32 -18 11 0 -20 -2 -21 -15 -11 -12 10 -15 10 -15 -3 0
-24 -28 -29 -41 -6 -13 26 -3 62 11 39 6 -8 10 -10 10 -5 0 6 4 4 9 -4 7 -11
12 -10 27 7 10 12 22 18 27 15 6 -4 8 3 5 15 -4 12 -2 22 3 22 5 0 9 -12 10
-27 0 -17 3 -22 6 -13 4 8 13 21 21 29 10 10 11 16 3 19 -6 2 -9 8 -6 12 3 5
13 6 22 3 11 -4 14 -3 9 5 -5 8 -2 10 8 6 12 -5 16 0 16 17 1 23 2 23 14 6 8
-10 16 -14 18 -10z m46 -42 c-9 -9 -30 14 -23 25 6 9 10 8 17 -4 6 -10 8 -19
6 -21z m172 -6 c0 -6 -4 -7 -10 -4 -5 3 -10 11 -10 16 0 6 5 7 10 4 6 -3 10
-11 10 -16z m510 7 c0 -3 -4 -8 -10 -11 -5 -3 -10 -1 -10 4 0 6 5 11 10 11 6
0 10 -2 10 -4z m54 -22 c3 -8 2 -12 -4 -9 -6 3 -10 10 -10 16 0 14 7 11 14 -7z
m-584 -14 c8 12 10 12 10 1 0 -11 3 -11 15 -1 13 10 19 10 35 -5 11 -10 17
-22 14 -27 -3 -5 -14 -2 -24 7 -18 16 -19 15 -25 -19 -4 -20 -11 -33 -16 -30
-5 3 -7 10 -4 15 4 5 1 17 -5 26 -10 17 -10 16 -9 -2 1 -11 -1 -27 -4 -35 -3
-8 -7 -24 -9 -35 -3 -14 -6 -10 -9 12 -3 18 -2 30 3 27 4 -3 8 4 8 16 0 12 -4
18 -10 15 -5 -3 -10 2 -10 13 0 25 12 35 22 20 6 -10 10 -10 18 2z m329 -63
c1 -16 -3 -26 -7 -23 -4 2 -9 24 -10 48 -1 32 1 38 8 23 5 -11 9 -33 9 -48z
m-74 13 c10 -11 16 -20 13 -20 -3 0 -13 9 -23 20 -10 11 -16 20 -13 20 3 0 13
-9 23 -20z m-155 -22 c0 -5 -4 -8 -10 -8 -5 0 -10 10 -10 23 0 18 2 19 10 7 5
-8 10 -18 10 -22z m623 -21 c-8 -15 -23 5 -23 31 l0 27 14 -25 c7 -14 11 -28
9 -33z m-260 34 c-4 -3 -10 -9 -13 -12 -3 -4 -10 -1 -17 6 -9 10 -6 13 13 13
14 0 21 -3 17 -7z m157 -11 c0 -11 -2 -20 -4 -20 -2 0 -6 9 -9 20 -3 11 -1 20
4 20 5 0 9 -9 9 -20z m-553 -12 c-3 -8 -6 -5 -6 6 -1 11 2 17 5 13 3 -3 4 -12
1 -19z m-17 2 c0 -5 -5 -10 -11 -10 -5 0 -7 5 -4 10 3 6 8 10 11 10 2 0 4 -4
4 -10z m-380 -16 c0 -14 -3 -14 -15 -4 -8 7 -15 14 -15 16 0 2 7 4 15 4 8 0
15 -7 15 -16z m912 -24 c20 -15 20 -16 -1 -16 -12 0 -21 5 -21 11 0 5 -5 3
-10 -5 -11 -17 -13 -5 -3 30 4 16 8 20 11 10 3 -8 14 -21 24 -30z m-645 8 c-3
-8 -6 -5 -6 6 -1 11 2 17 5 13 3 -3 4 -12 1 -19z m-240 -10 c-3 -8 -6 -5 -6 6
-1 11 2 17 5 13 3 -3 4 -12 1 -19z m-434 -3 c18 3 21 -3 9 -22 -6 -10 -13 -9
-30 3 -12 8 -22 20 -22 26 0 7 4 7 13 1 6 -6 20 -9 30 -8z m93 -32 c-3 -4 -6
-1 -6 6 0 7 -4 9 -10 6 -6 -4 -7 1 -3 11 6 15 7 15 15 -1 6 -9 7 -19 4 -22z
m86 13 c7 4 8 2 4 -4 -4 -7 -2 -12 3 -12 6 0 11 -8 11 -17 0 -14 -6 -12 -25
11 -14 16 -25 34 -25 40 0 6 5 3 11 -7 6 -9 15 -14 21 -11z m225 2 c-3 -8 -6
-5 -6 6 -1 11 2 17 5 13 3 -3 4 -12 1 -19z m220 -10 c-3 -8 -6 -5 -6 6 -1 11
2 17 5 13 3 -3 4 -12 1 -19z m67 14 c-6 -4 -15 -15 -21 -26 -7 -12 -13 -15
-17 -7 -4 6 -3 11 3 11 6 0 8 7 5 15 -5 11 1 15 17 15 14 0 19 -4 13 -8z
m-417 -24 c-3 -8 -6 -5 -6 6 -1 11 2 17 5 13 3 -3 4 -12 1 -19z m431 -30 c1
-25 -1 -38 -6 -31 -8 13 -8 73 1 73 2 0 4 -19 5 -42z m96 -24 c3 -8 2 -12 -4
-9 -6 3 -10 10 -10 16 0 14 7 11 14 -7z"/>
<path d="M3440 2652 c1 -14 30 -45 32 -34 3 31 2 35 -14 38 -10 1 -18 -1 -18
-4z"/>
<path d="M3415 2638 c-10 -26 2 -55 17 -40 8 8 8 18 1 34 -10 21 -12 21 -18 6z"/>
<path d="M3285 2560 c3 -5 8 -10 11 -10 2 0 4 5 4 10 0 6 -5 10 -11 10 -5 0
-7 -4 -4 -10z"/>
<path d="M4766 2783 c10 -7 29 -14 43 -14 14 -1 31 -2 36 -4 6 -1 35 -3 65 -3
38 -2 51 -5 43 -13 -5 -5 -21 -11 -35 -13 -13 -1 -35 -10 -48 -19 -31 -22 -58
-23 -41 -3 7 9 8 17 3 20 -16 10 -23 -24 -10 -47 11 -21 10 -21 -7 -7 -17 14
-18 13 -12 -2 4 -11 2 -17 -5 -15 -7 1 -13 -10 -13 -25 -1 -22 4 -28 20 -28
19 -1 19 -1 2 -14 -16 -12 -16 -14 -1 -20 22 -8 36 -8 30 2 -2 4 11 6 31 4 25
-3 38 0 44 10 6 11 18 13 46 9 37 -6 38 -8 38 -47 0 -38 2 -40 25 -35 14 2 19
6 13 8 -7 3 -13 15 -13 27 0 12 -5 27 -11 33 -16 16 6 19 81 13 54 -5 60 -7
38 -14 -16 -4 -35 -6 -43 -2 -11 4 -15 -1 -15 -17 0 -13 -5 -28 -12 -35 -9 -9
-6 -12 15 -12 16 0 32 8 39 20 9 13 23 20 43 19 24 0 26 -2 11 -8 -17 -7 -17
-8 -3 -14 8 -3 28 -4 43 -1 25 5 26 3 20 -28 -15 -76 -15 -89 2 -86 14 3 17
15 15 66 -2 36 1 62 7 62 6 0 10 -4 10 -10 0 -5 5 -10 11 -10 5 0 7 4 4 10
-12 19 50 23 159 11 61 -7 116 -17 123 -23 7 -6 14 -5 18 2 3 5 -1 10 -10 10
-22 0 -30 27 -12 45 12 12 41 15 131 15 103 0 118 2 136 20 26 26 38 19 32
-20 -4 -25 -1 -30 16 -30 34 0 52 11 52 31 0 10 -4 19 -10 19 -5 0 -10 8 -10
19 0 16 12 19 113 25 190 11 207 15 207 42 0 13 -4 24 -10 24 -5 0 -10 -7 -10
-15 0 -8 -7 -15 -15 -15 -10 0 -15 10 -15 30 0 22 5 30 17 30 25 0 -1 23 -30
27 -70 9 -88 9 -93 1 -3 -4 -9 -6 -14 -3 -9 6 -71 7 -125 2 -16 -1 -36 2 -42
6 -8 6 -15 4 -19 -6 -4 -13 -9 -13 -29 -3 -27 14 -98 12 -103 -4 -2 -5 -12
-10 -23 -10 -10 0 -19 -5 -19 -11 0 -6 -6 -9 -12 -6 -7 2 -12 10 -10 16 1 8
-4 7 -18 -1 -11 -7 -20 -20 -21 -28 -1 -8 -5 -4 -9 10 -4 14 -8 19 -9 11 -1
-11 -6 -10 -26 3 -35 23 -42 20 -38 -16 2 -25 1 -28 -5 -14 -8 19 -9 19 -14
-2 -8 -29 -22 -28 -36 3 -8 18 -8 24 0 22 18 -4 20 20 1 27 -10 4 -19 2 -21
-3 -2 -6 -8 -8 -14 -5 -6 4 -5 -3 1 -15 9 -17 9 -21 -1 -19 -7 2 -16 10 -20
18 -5 12 -7 11 -7 -3 -1 -10 -6 -15 -11 -12 -6 4 -8 10 -5 15 3 5 1 11 -5 15
-5 3 -10 -3 -10 -14 0 -12 -4 -21 -10 -21 -5 0 -7 7 -4 15 4 8 1 15 -4 15 -6
0 -9 -9 -7 -20 2 -11 0 -22 -6 -25 -5 -4 -9 1 -9 9 0 9 -3 16 -7 17 -69 9 -94
7 -89 -6 3 -8 1 -15 -4 -15 -6 0 -10 6 -10 14 0 7 -9 16 -20 19 -13 3 -20 0
-20 -9 0 -13 -21 -19 -45 -14 -5 1 -36 2 -67 1 -31 0 -60 4 -63 9 -3 5 -14 7
-25 5 -12 -2 -21 3 -25 15 -5 15 -20 19 -98 24 -51 4 -102 5 -115 4 -21 -2
-22 -3 -6 -15z m955 -36 c-1 -12 -15 -9 -19 4 -3 6 1 10 8 8 6 -3 11 -8 11
-12z m-875 -124 c-7 -7 -26 7 -26 19 0 6 6 6 15 -2 9 -7 13 -15 11 -17z"/>
<path d="M340 2780 c0 -6 7 -10 15 -10 8 0 15 2 15 4 0 2 -7 6 -15 10 -8 3
-15 1 -15 -4z"/>
<path d="M4034 2780 c-3 -3 -56 -6 -117 -7 -62 -2 -121 -5 -132 -7 -11 -2 -26
-5 -34 -5 -25 -2 -2 -15 29 -17 18 -1 30 2 30 9 0 7 5 6 11 -3 8 -12 12 -12
16 -2 4 10 8 10 20 1 11 -10 16 -10 22 0 6 10 10 9 14 -3 4 -9 18 -16 33 -16
15 0 55 -5 89 -12 50 -9 73 -8 109 2 47 13 56 29 36 60 -8 12 -10 10 -10 -9 0
-24 0 -24 -15 -5 -8 10 -15 15 -15 10 0 -5 -6 -3 -14 3 -13 11 -62 12 -72 1z"/>
<path d="M4230 2764 c0 -14 4 -23 10 -19 6 3 10 15 10 26 0 10 -4 19 -10 19
-5 0 -10 -12 -10 -26z"/>
<path d="M5070 2779 c0 -5 5 -7 10 -4 6 3 10 8 10 11 0 2 -4 4 -10 4 -5 0 -10
-5 -10 -11z"/>
<path d="M5150 2780 c0 -5 7 -10 16 -10 8 0 12 5 9 10 -3 6 -10 10 -16 10 -5
0 -9 -4 -9 -10z"/>
<path d="M3340 2770 c0 -5 7 -7 15 -4 8 4 15 8 15 10 0 2 -7 4 -15 4 -8 0 -15
-4 -15 -10z"/>
<path d="M3430 2771 c0 -5 5 -13 10 -16 6 -3 10 -2 10 4 0 5 -4 13 -10 16 -5
3 -10 2 -10 -4z"/>
<path d="M4190 2760 c0 -13 5 -18 15 -14 8 4 15 12 15 20 0 8 -7 14 -15 14 -8
0 -15 -9 -15 -20z"/>
<path d="M4262 2768 c2 -5 8 -9 13 -9 5 0 11 4 13 9 1 5 -4 9 -13 9 -9 0 -14
-4 -13 -9z"/>
<path d="M3690 2762 c0 -14 11 -21 26 -15 8 3 11 9 8 14 -7 11 -34 12 -34 1z"/>
<path d="M590 2750 c8 -5 24 -9 35 -9 l20 0 -20 9 c-11 5 -27 9 -35 9 -13 1
-13 0 0 -9z"/>
<path d="M725 2741 c-3 -5 2 -11 10 -15 8 -3 17 -1 20 3 3 5 -2 11 -10 15 -8
3 -17 1 -20 -3z"/>
<path d="M4395 2734 c20 -16 20 -16 -2 -9 -14 4 -23 2 -23 -4 0 -6 7 -11 16
-11 17 0 38 -18 46 -40 3 -9 8 0 13 20 4 19 12 41 17 48 8 9 6 12 -6 12 -9 0
-16 -5 -16 -10 0 -7 -6 -7 -19 0 -31 16 -49 12 -26 -6z"/>
<path d="M5500 2740 c0 -5 5 -10 11 -10 5 0 7 5 4 10 -3 6 -8 10 -11 10 -2 0
-4 -4 -4 -10z"/>
<path d="M475 2730 c-3 -6 1 -7 9 -4 18 7 21 14 7 14 -6 0 -13 -4 -16 -10z"/>
<path d="M520 2710 c20 -13 33 -13 25 0 -3 6 -14 10 -23 10 -15 0 -15 -2 -2
-10z"/>
<path d="M4205 2710 c3 -5 10 -10 16 -10 5 0 9 5 9 10 0 6 -7 10 -16 10 -8 0
-12 -4 -9 -10z"/>
<path d="M4674 2674 c5 -12 2 -15 -12 -12 -10 3 -23 -1 -30 -9 -11 -11 -6 -13
26 -13 21 0 44 -6 51 -12 12 -11 13 -9 7 7 -7 18 -5 18 14 -3 12 -12 25 -20
31 -17 12 8 11 46 -2 65 -7 11 -9 7 -5 -17 2 -18 0 -33 -5 -33 -6 0 -9 6 -8
13 3 27 -2 37 -20 37 -11 0 -22 -6 -24 -12 -3 -8 -6 -6 -6 5 -1 9 -6 17 -12
17 -6 0 -8 -7 -5 -16z"/>
<path d="M4770 2680 c0 -5 5 -10 10 -10 6 0 10 5 10 10 0 6 -4 10 -10 10 -5 0
-10 -4 -10 -10z"/>
<path d="M1045 2670 c3 -5 11 -10 16 -10 6 0 7 5 4 10 -3 6 -11 10 -16 10 -6
0 -7 -4 -4 -10z"/>
<path d="M1085 2670 c3 -5 13 -10 21 -10 8 0 14 5 14 10 0 6 -9 10 -21 10 -11
0 -17 -4 -14 -10z"/>
<path d="M4381 2664 c0 -11 3 -14 6 -6 3 7 2 16 -1 19 -3 4 -6 -2 -5 -13z"/>
<path d="M4405 2671 c-3 -5 -1 -12 5 -16 5 -3 10 1 10 9 0 18 -6 21 -15 7z"/>
<path d="M4506 2662 c-2 -4 -1 -14 5 -22 7 -12 9 -10 9 8 0 23 -5 28 -14 14z"/>
<path d="M928 2653 c6 -2 18 -2 25 0 6 3 1 5 -13 5 -14 0 -19 -2 -12 -5z"/>
<path d="M1308 2623 c7 -3 16 -2 19 1 4 3 -2 6 -13 5 -11 0 -14 -3 -6 -6z"/>
<path d="M4455 2610 c3 -5 8 -10 11 -10 2 0 4 5 4 10 0 6 -5 10 -11 10 -5 0
-7 -4 -4 -10z"/>
<path d="M6256 2613 c-9 -9 -7 -33 3 -33 12 0 22 28 12 34 -5 3 -11 3 -15 -1z"/>
<path d="M6700 2610 c0 -5 5 -10 10 -10 6 0 10 5 10 10 0 6 -4 10 -10 10 -5 0
-10 -4 -10 -10z"/>
<path d="M7670 2599 c0 -5 5 -7 10 -4 6 3 10 8 10 11 0 2 -4 4 -10 4 -5 0 -10
-5 -10 -11z"/>
<path d="M1150 2580 c0 -5 7 -10 16 -10 8 0 12 5 9 10 -3 6 -10 10 -16 10 -5
0 -9 -4 -9 -10z"/>
<path d="M6700 2580 c-9 -6 -10 -10 -3 -10 6 0 15 5 18 10 8 12 4 12 -15 0z"/>
<path d="M1195 2570 c3 -5 8 -10 11 -10 2 0 4 5 4 10 0 6 -5 10 -11 10 -5 0
-7 -4 -4 -10z"/>
<path d="M6880 2570 c-8 -5 -12 -11 -9 -14 2 -3 11 -1 19 4 8 5 12 11 9 14 -2
3 -11 1 -19 -4z"/>
<path d="M4773 2545 c-11 -29 -11 -29 -13 -5 -1 23 -3 22 -14 -10 -16 -42 -13
-50 15 -43 12 3 24 1 28 -6 11 -17 54 23 48 46 -4 17 -5 17 -6 0 -2 -26 -39
-4 -43 25 -3 21 -4 21 -15 -7z"/>
<path d="M8814 2561 c-2 -2 -4 -8 -4 -13 0 -13 36 -9 48 5 8 9 4 12 -15 12
-13 0 -27 -2 -29 -4z"/>
<path d="M4910 2551 c0 -5 -3 -16 -6 -25 -4 -11 0 -16 14 -16 27 0 37 17 22
35 -14 17 -30 20 -30 6z"/>
<path d="M6915 2550 c3 -5 13 -10 21 -10 8 0 12 5 9 10 -3 6 -13 10 -21 10 -8
0 -12 -4 -9 -10z"/>
<path d="M8670 2545 c-8 -9 -8 -15 -2 -15 12 0 26 19 19 26 -2 2 -10 -2 -17
-11z"/>
<path d="M1150 2539 c0 -5 5 -7 10 -4 6 3 10 8 10 11 0 2 -4 4 -10 4 -5 0 -10
-5 -10 -11z"/>
<path d="M4517 2543 c-12 -11 -8 -31 6 -29 18 3 37 16 37 27 0 10 -33 12 -43
2z"/>
<path d="M7056 2542 c-2 -4 4 -8 14 -8 10 0 16 4 14 8 -3 4 -9 8 -14 8 -5 0
-11 -4 -14 -8z"/>
<path d="M7626 2535 c-3 -8 -1 -15 4 -15 6 0 10 7 10 15 0 8 -2 15 -4 15 -2 0
-6 -7 -10 -15z"/>
<path d="M1328 2533 c7 -3 16 -2 19 1 4 3 -2 6 -13 5 -11 0 -14 -3 -6 -6z"/>
<path d="M1199 2519 c14 -5 28 -6 33 -1 4 4 -7 9 -25 9 -30 2 -31 2 -8 -8z"/>
<path d="M1415 2510 c17 -4 39 -8 50 -8 16 0 15 2 -5 8 -14 4 -36 8 -50 8 -22
0 -22 -1 5 -8z"/>
<path d="M4587 2504 c-15 -8 -25 -19 -22 -25 4 -5 11 -6 17 -3 6 4 8 -1 3 -15
-4 -15 -3 -21 6 -19 9 2 12 -11 10 -47 -2 -27 -5 -53 -7 -57 -3 -5 2 -8 10 -8
9 0 16 -6 16 -14 0 -10 -16 -17 -47 -21 -81 -11 -72 -15 17 -9 47 4 113 7 148
6 60 -1 78 8 47 26 -9 4 -17 19 -19 33 -1 14 -6 30 -10 37 -11 17 9 15 24 -3
7 -9 15 -14 17 -11 7 7 -30 46 -45 46 -7 0 -16 -10 -21 -22 -7 -20 -8 -18 -15
13 -5 21 -10 28 -13 19 -3 -8 -14 -23 -23 -32 -17 -16 -18 -15 -23 15 -4 29
13 63 26 51 3 -3 15 -3 26 1 19 6 19 8 6 21 -8 9 -15 20 -15 26 0 6 -9 1 -20
-12 -18 -20 -20 -21 -26 -5 -5 13 -9 14 -15 3 -7 -10 -9 -9 -9 5 0 21 -7 21
-43 1z m76 -169 c-8 -22 -22 -18 -16 5 3 11 9 17 14 15 4 -3 6 -12 2 -20z"/>
<path d="M5094 2493 c-4 -16 -11 -22 -21 -18 -9 3 -26 -5 -41 -20 -29 -30 -51
-32 -78 -7 -22 21 -65 23 -72 4 -2 -7 7 -12 22 -12 14 0 26 -4 26 -10 0 -5
-15 -10 -32 -10 -28 -1 -30 -2 -15 -11 20 -11 208 -15 225 -5 6 3 12 1 14 -5
7 -20 46 1 56 30 8 23 6 33 -12 53 -31 38 -64 43 -72 11z m-14 -53 c0 -5 -5
-10 -11 -10 -5 0 -7 5 -4 10 3 6 8 10 11 10 2 0 4 -4 4 -10z"/>
<path d="M4540 2486 c0 -8 4 -17 9 -20 5 -4 7 3 4 14 -6 23 -13 26 -13 6z"/>
<path d="M5951 2481 c-17 -30 -10 -45 13 -28 15 11 16 18 9 32 -10 17 -11 17
-22 -4z"/>
<path d="M1521 2486 c12 -10 60 -16 54 -6 -3 5 -18 10 -32 10 -15 0 -24 -2
-22 -4z"/>
<path d="M4800 2460 c0 -5 -6 -7 -14 -4 -8 3 -17 1 -21 -5 -4 -7 13 -11 49
-11 33 0 56 4 56 11 0 6 -9 8 -20 4 -11 -4 -20 -2 -20 4 0 6 -7 11 -15 11 -8
0 -15 -4 -15 -10z"/>
<path d="M4413 2454 c3 -4 0 -19 -9 -35 l-15 -29 36 0 36 0 -6 -54 c-7 -56 4
-78 29 -57 12 10 13 52 2 89 -4 11 -2 23 4 27 15 9 12 31 -5 33 -8 1 -22 3
-30 4 -8 1 -16 7 -19 15 -3 7 -11 13 -17 13 -7 0 -10 -3 -6 -6z"/>
<path d="M3335 2430 c-8 -13 4 -32 15 -25 5 3 11 -3 13 -12 4 -17 5 -17 6 0 1
23 -25 51 -34 37z"/>
<path d="M1500 2420 c0 -5 5 -10 11 -10 5 0 7 5 4 10 -3 6 -8 10 -11 10 -2 0
-4 -4 -4 -10z"/>
<path d="M4030 2420 c0 -5 5 -10 11 -10 5 0 7 5 4 10 -3 6 -8 10 -11 10 -2 0
-4 -4 -4 -10z"/>
<path d="M3525 2388 c4 -17 2 -28 -4 -28 -6 0 -11 5 -11 10 0 6 -4 10 -10 10
-5 0 -10 -6 -10 -14 0 -23 -16 -27 -17 -4 -2 27 -11 34 -25 20 -9 -9 -9 -12 0
-12 7 0 12 -4 12 -10 0 -5 -8 -10 -18 -10 -10 0 -19 -6 -19 -14 0 -17 77 -12
89 6 6 10 8 10 8 1 0 -7 7 -13 15 -13 11 0 15 11 15 43 0 33 -4 44 -15 44 -12
0 -14 -7 -10 -29z"/>
<path d="M5422 2390 c-5 -14 -13 -39 -16 -57 -6 -25 -13 -33 -34 -36 -15 -2
-11 -3 8 -1 73 8 75 9 76 41 1 17 -5 41 -12 54 l-12 24 -10 -25z"/>
<path d="M5620 2370 c0 -16 5 -30 10 -30 6 0 10 14 10 30 0 17 -4 30 -10 30
-5 0 -10 -13 -10 -30z"/>
<path d="M4786 2345 c4 -8 8 -15 10 -15 2 0 4 7 4 15 0 8 -4 15 -10 15 -5 0
-7 -7 -4 -15z"/>
<path d="M1818 2343 c7 -3 16 -2 19 1 4 3 -2 6 -13 5 -11 0 -14 -3 -6 -6z"/>
<path d="M1885 2320 c4 -7 2 -16 -6 -21 -14 -9 47 -5 104 7 31 6 29 16 -4 21
-12 2 -18 -1 -14 -7 6 -10 -61 -4 -79 8 -5 3 -6 -1 -1 -8z"/>
<path d="M6950 2306 c0 -2 7 -6 15 -10 8 -3 15 -1 15 4 0 6 -7 10 -15 10 -8 0
-15 -2 -15 -4z"/>
<path d="M8775 2300 c-3 -6 1 -7 9 -4 18 7 21 14 7 14 -6 0 -13 -4 -16 -10z"/>
<path d="M2060 2292 c0 -16 32 -52 41 -47 15 10 10 23 -11 30 -11 4 -18 11
-15 16 4 5 1 9 -4 9 -6 0 -11 -3 -11 -8z"/>
<path d="M2110 2283 c1 -19 19 -35 34 -30 10 4 16 1 16 -7 0 -7 12 -19 28 -26
35 -18 99 -20 99 -4 0 13 -70 44 -100 44 -10 0 -31 7 -47 15 -17 9 -30 12 -30
8z"/>
<path d="M2116 2218 c3 -5 10 -6 15 -3 13 9 11 12 -6 12 -8 0 -12 -4 -9 -9z"/>
<path d="M5290 2131 c0 -10 7 -22 16 -25 12 -5 15 -2 10 10 -3 8 -6 20 -6 25
0 5 -4 9 -10 9 -5 0 -10 -9 -10 -19z"/>
<path d="M3027 2124 c7 -3 9 -13 6 -21 -5 -12 -2 -15 10 -10 10 4 17 2 17 -5
0 -6 3 -9 6 -6 3 4 20 2 37 -4 46 -14 159 -19 151 -7 -3 6 -17 14 -31 20 -14
5 -21 14 -17 20 5 8 1 8 -14 0 -24 -13 -69 -15 -74 -3 -1 5 -16 12 -31 16 -19
4 -26 3 -22 -4 3 -5 2 -10 -4 -10 -5 0 -13 5 -16 10 -3 6 -12 10 -18 9 -9 0
-9 -2 0 -5z"/>
<path d="M3230 2100 c8 -5 22 -9 30 -9 10 0 8 3 -5 9 -27 12 -43 12 -25 0z"/>
<path d="M4913 2093 c9 -2 25 -2 35 0 9 3 1 5 -18 5 -19 0 -27 -2 -17 -5z"/>
<path d="M5358 2093 c7 -3 16 -2 19 1 4 3 -2 6 -13 5 -11 0 -14 -3 -6 -6z"/>
<path d="M3280 2060 c20 -13 47 -13 55 0 4 6 -9 10 -32 10 -28 0 -34 -3 -23
-10z"/>
<path d="M5480 2060 c8 -5 22 -10 30 -10 13 0 13 1 0 10 -8 5 -22 10 -30 10
-13 0 -13 -1 0 -10z"/>
<path d="M5877 2049 c7 -7 15 -10 18 -7 3 3 -2 9 -12 12 -14 6 -15 5 -6 -5z"/>
<path d="M6017 2052 c-10 -2 -16 -9 -14 -16 3 -7 -1 -13 -9 -13 -7 0 -15 6
-18 14 -3 7 -10 13 -16 13 -6 0 -8 -4 -5 -10 3 -5 0 -10 -7 -10 -8 0 -23 -7
-34 -15 -18 -15 -18 -15 6 -10 14 2 50 7 80 9 80 7 189 27 195 36 3 4 -12 4
-33 -1 -47 -11 -119 -12 -124 -1 -1 4 -11 6 -21 4z"/>
<path d="M6464 2027 c-3 -9 -17 -13 -42 -10 -31 3 -38 0 -39 -15 -1 -16 6 -18
55 -17 31 0 63 -3 70 -8 6 -5 12 -6 12 -1 0 5 38 9 84 9 90 0 101 14 19 22
-26 3 -52 9 -58 13 -5 4 -30 6 -53 3 -29 -3 -42 -1 -37 6 3 6 4 11 0 11 -3 0
-8 -6 -11 -13z"/>
<path d="M6285 2025 c-5 -2 -23 -6 -38 -9 -29 -7 -29 -24 1 -25 9 -1 40 -3 69
-5 38 -3 53 -1 57 9 3 8 2 16 -2 18 -12 7 -76 16 -87 12z m62 -21 c-3 -3 -12
-4 -19 -1 -8 3 -5 6 6 6 11 1 17 -2 13 -5z"/>
<path d="M7028 2023 c6 -2 18 -2 25 0 6 3 1 5 -13 5 -14 0 -19 -2 -12 -5z"/>
<path d="M8698 2023 c6 -2 18 -2 25 0 6 3 1 5 -13 5 -14 0 -19 -2 -12 -5z"/>
<path d="M3453 1970 c-1 -9 5 -17 13 -17 8 0 13 6 10 13 -3 7 0 15 7 17 7 3 3
5 -9 4 -11 -1 -21 -8 -21 -17z"/>
<path d="M7135 1981 c-19 -8 -19 -8 0 -19 24 -14 28 -13 -121 -17 -62 -2 -121
-8 -132 -14 -10 -6 -23 -7 -27 -3 -5 4 -5 2 -1 -5 4 -7 13 -10 21 -6 8 3 15 0
15 -6 0 -6 -9 -11 -20 -11 -11 0 -20 -4 -20 -9 0 -5 -28 -16 -62 -24 -35 -9
-83 -20 -108 -26 -65 -16 -101 -32 -94 -42 3 -5 1 -9 -5 -9 -5 0 -13 5 -17 11
-4 8 -9 8 -17 0 -6 -6 -32 -11 -58 -11 -25 0 -66 -7 -89 -15 -23 -8 -55 -15
-70 -15 -34 0 -61 -26 -33 -32 10 -2 38 0 63 4 62 11 91 14 161 16 33 1 58 6
55 11 -7 11 68 33 88 25 9 -3 16 -1 16 4 0 13 149 62 185 62 13 0 27 5 30 10
3 6 16 10 29 10 12 0 28 6 35 13 12 10 13 9 7 -7 -5 -15 -3 -17 16 -12 13 3
33 6 45 6 12 0 29 7 37 16 9 8 20 13 25 10 4 -3 40 3 80 14 39 11 82 20 96 20
14 0 25 4 25 9 0 5 14 9 30 9 50 -2 45 10 -7 17 -26 3 -67 10 -90 15 -48 11
-61 12 -88 1z m-198 -67 c-3 -3 -12 -4 -19 -1 -8 3 -5 6 6 6 11 1 17 -2 13 -5z"/>
<path d="M8520 1979 c-19 -5 -57 -11 -83 -15 -52 -6 -57 -18 -7 -16 16 0 30
-4 30 -9 0 -5 11 -9 23 -9 13 0 59 -9 102 -20 43 -11 80 -18 83 -15 2 2 11 -2
19 -10 14 -14 27 -16 135 -19 l48 -1 0 38 c0 42 11 39 -155 42 -38 1 -81 3
-95 4 l-25 2 24 13 23 13 -32 7 c-37 7 -42 7 -90 -5z m333 -66 c-7 -2 -19 -2
-25 0 -7 3 -2 5 12 5 14 0 19 -2 13 -5z m-58 -33 c3 -5 1 -10 -4 -10 -6 0 -11
5 -11 10 0 6 2 10 4 10 3 0 8 -4 11 -10z"/>
<path d="M7423 1969 c-32 -12 -29 -20 7 -17 17 1 30 6 30 10 0 13 -15 16 -37
7z"/>
<path d="M8296 1972 c-12 -12 -5 -18 25 -20 17 -1 28 2 25 7 -7 11 -43 21 -50
13z"/>
<path d="M6385 1960 c3 -5 8 -10 11 -10 2 0 4 5 4 10 0 6 -5 10 -11 10 -5 0
-7 -4 -4 -10z"/>
<path d="M6660 1966 c0 -2 7 -6 15 -10 8 -3 15 -1 15 4 0 6 -7 10 -15 10 -8 0
-15 -2 -15 -4z"/>
<path d="M6738 1963 c7 -3 16 -2 19 1 4 3 -2 6 -13 5 -11 0 -14 -3 -6 -6z"/>
<path d="M6310 1920 c0 -3 9 -11 21 -18 12 -8 18 -9 14 -3 -3 6 1 11 9 11 9 0
16 5 16 10 0 6 -13 9 -30 8 -16 -1 -30 -5 -30 -8z"/>
<path d="M7500 1926 c0 -2 7 -7 16 -10 8 -3 12 -2 9 4 -6 10 -25 14 -25 6z"/>
<path d="M8158 1923 c7 -3 16 -2 19 1 4 3 -2 6 -13 5 -11 0 -14 -3 -6 -6z"/>
<path d="M8225 1920 c-3 -6 1 -7 9 -4 18 7 21 14 7 14 -6 0 -13 -4 -16 -10z"/>
<path d="M6417 1859 c6 -6 9 -17 7 -24 -6 -14 23 -41 33 -31 9 9 -17 54 -36
61 -12 5 -13 3 -4 -6z"/>
<path d="M7855 1860 c-3 -5 -18 -10 -32 -10 -25 0 -26 -1 -8 -20 13 -15 22
-17 36 -9 13 6 25 6 39 -1 15 -8 24 -6 40 10 l20 20 -29 0 c-17 0 -33 5 -36
10 -3 6 -10 10 -15 10 -5 0 -12 -4 -15 -10z"/>
<path d="M6330 1834 c0 -12 35 -33 55 -34 14 0 21 7 22 20 1 14 -4 20 -18 20
-12 0 -17 -4 -13 -11 5 -8 1 -8 -14 0 -24 13 -32 14 -32 5z"/>
<path d="M7430 1819 c0 -5 5 -7 10 -4 6 3 10 8 10 11 0 2 -4 4 -10 4 -5 0 -10
-5 -10 -11z"/>
<path d="M8305 1820 c3 -5 8 -10 11 -10 2 0 4 5 4 10 0 6 -5 10 -11 10 -5 0
-7 -4 -4 -10z"/>
<path d="M7506 1811 c17 -17 79 -18 69 -1 -3 6 -23 10 -43 10 -22 0 -32 -4
-26 -9z"/>
<path d="M8175 1810 c-10 -17 52 -16 70 1 5 5 -5 9 -27 9 -20 0 -40 -4 -43
-10z"/>
<path d="M4415 1770 c-3 -4 8 -18 25 -30 16 -12 30 -17 30 -12 0 14 -49 52
-55 42z"/>
<path d="M7140 1770 c0 -5 7 -10 15 -10 8 0 15 5 15 10 0 6 -7 10 -15 10 -8 0
-15 -4 -15 -10z"/>
<path d="M7595 1770 c-3 -5 3 -10 15 -10 12 0 18 5 15 10 -3 6 -10 10 -15 10
-5 0 -12 -4 -15 -10z"/>
<path d="M8125 1770 c-3 -5 3 -10 15 -10 12 0 18 5 15 10 -3 6 -10 10 -15 10
-5 0 -12 -4 -15 -10z"/>
<path d="M8585 1770 c-3 -5 1 -10 9 -10 9 0 16 5 16 10 0 6 -4 10 -9 10 -6 0
-13 -4 -16 -10z"/>
<path d="M6150 1760 c-8 -5 -10 -10 -5 -11 6 -1 -6 -5 -25 -8 -19 -4 -40 -3
-47 2 -7 5 -17 6 -22 3 -5 -4 -12 -2 -16 3 -3 6 -13 7 -21 4 -13 -5 -13 -7 -2
-14 9 -6 7 -9 -9 -9 -13 0 -23 5 -23 11 0 5 -4 8 -9 5 -5 -4 -12 0 -14 6 -3 8
-6 6 -6 -4 -1 -22 -21 -24 -21 -3 0 20 -10 19 -26 -2 -9 -12 -13 -14 -14 -5 0
7 -4 11 -10 7 -5 -3 -7 -12 -3 -20 6 -18 -8 -19 -26 -2 -11 10 -12 9 -6 -1 6
-12 3 -12 -15 -2 -18 10 -20 14 -9 21 11 7 9 9 -6 9 -11 0 -30 -3 -43 -6 -18
-5 -20 -9 -11 -20 8 -10 8 -14 0 -14 -6 0 -11 -6 -11 -14 0 -22 40 -26 100
-11 30 8 78 17 105 20 130 15 188 27 211 41 13 9 24 18 24 20 0 7 -25 4 -40
-6z"/>
<path d="M6683 1763 c9 -2 23 -2 30 0 6 3 -1 5 -18 5 -16 0 -22 -2 -12 -5z"/>
<path d="M6988 1765 c-3 -3 -23 -8 -44 -10 -84 -9 -116 -18 -126 -35 -9 -13
-17 -16 -33 -10 -27 10 -41 2 -42 -26 -1 -15 4 -20 20 -19 26 2 67 -15 67 -27
0 -5 -5 -6 -11 -2 -7 4 -20 -4 -30 -17 l-19 -24 9 32 c8 26 7 31 -5 26 -8 -3
-12 -9 -9 -13 6 -10 -103 -6 -112 4 -3 3 -17 3 -30 0 -13 -4 -30 -1 -37 6 -11
8 -20 9 -35 0 -16 -8 -19 -8 -16 3 4 10 -14 12 -81 12 -61 0 -89 4 -91 13 -4
9 17 12 81 12 49 0 88 4 91 11 4 6 13 8 21 5 8 -3 14 -1 14 5 0 6 -27 8 -70 6
-38 -2 -74 1 -79 6 -7 7 -15 6 -25 -2 -19 -16 -133 -24 -141 -11 -4 6 -16 8
-27 4 -12 -3 -55 -12 -97 -19 -54 -9 -65 -13 -38 -14 39 -1 53 -20 15 -22 -13
0 -17 -3 -10 -6 22 -9 13 -18 -17 -18 -16 0 -29 4 -28 10 1 5 -7 9 -18 10 -11
0 -19 6 -17 13 2 9 -4 12 -15 8 -15 -4 -52 -11 -142 -27 -3 -1 5 -4 19 -8 14
-5 30 -5 35 -2 17 10 35 10 29 0 -3 -5 -10 -7 -15 -4 -5 4 -9 1 -9 -4 0 -6 20
-16 45 -22 25 -6 45 -16 45 -21 0 -6 9 -8 20 -5 11 3 18 2 15 -3 -3 -4 11 -11
29 -14 19 -4 49 -20 66 -36 18 -17 38 -30 46 -30 8 0 14 -4 14 -10 0 -5 7 -10
15 -10 9 0 30 -7 47 -16 32 -17 120 -44 153 -47 11 -2 31 -9 45 -17 47 -27
102 -50 121 -50 11 0 19 -7 19 -17 0 -13 2 -15 8 -5 6 9 20 4 52 -22 24 -19
47 -33 51 -31 9 6 69 -24 69 -35 0 -4 11 -11 25 -14 14 -4 25 -12 25 -19 0 -9
2 -9 8 0 10 16 72 -14 73 -36 0 -9 3 -11 5 -4 4 9 13 9 31 2 14 -5 28 -7 31
-4 3 2 10 -2 16 -11 10 -13 28 -20 59 -23 5 -1 5 -6 1 -12 -5 -8 -1 -8 14 0
14 7 21 8 24 0 2 -5 23 -12 48 -14 25 -3 46 -9 48 -15 2 -6 8 -8 13 -4 5 3 9
-2 9 -10 0 -8 5 -18 12 -22 6 -4 8 -3 5 3 -4 6 1 14 10 17 10 4 14 4 10 0 -4
-4 -2 -13 4 -21 9 -10 7 -13 -6 -13 -11 0 -15 -5 -12 -14 7 -17 -26 -31 -44
-20 -6 3 -36 1 -66 -6 -40 -10 -56 -11 -62 -2 -4 7 -12 8 -21 2 -8 -6 -13 -10
-10 -11 34 -6 43 -9 48 -15 4 -4 -1 -4 -10 -1 -10 4 -18 3 -18 -2 0 -4 -11 -6
-25 -3 -14 2 -22 8 -19 13 9 14 -6 10 -22 -6 -9 -8 -25 -15 -37 -14 -21 1 -20
2 23 15 12 4 12 6 1 14 -8 4 -22 7 -31 5 -19 -4 -89 -45 -76 -45 5 0 4 -6 -2
-13 -7 -8 -7 -18 -2 -27 14 -22 12 -40 -4 -34 -7 3 -16 -2 -19 -10 -4 -9 -1
-16 5 -16 6 0 3 -9 -7 -20 -21 -23 -39 -20 -92 16 -20 13 -39 24 -43 24 -13 0
-17 -59 -6 -70 8 -8 6 -9 -7 -4 -9 3 -17 11 -16 18 4 30 -1 37 -15 24 -7 -7
-11 -19 -8 -27 3 -9 0 -12 -9 -9 -8 3 -13 11 -11 18 2 10 -1 10 -10 3 -24 -18
-104 -43 -146 -46 -23 -1 -42 -5 -42 -9 0 -8 -75 -37 -107 -41 -11 -2 -27 -8
-35 -14 -7 -7 -37 -15 -66 -19 -29 -4 -55 -11 -58 -15 -3 -5 -9 -7 -14 -4 -5
3 -11 1 -15 -5 -3 -5 -24 -10 -46 -10 -24 0 -38 -4 -34 -10 3 -6 -1 -10 -11
-10 -15 0 -15 -2 0 -25 21 -32 20 -38 -6 -29 -30 9 -35 14 -21 22 8 5 9 12 2
22 -8 11 -12 12 -16 3 -2 -7 -15 -13 -28 -13 -24 0 -52 -25 -37 -34 5 -3 19
-3 31 -1 19 3 21 2 11 -10 -14 -17 -43 -6 -59 22 -8 15 -14 16 -43 5 -19 -6
-49 -12 -66 -12 -18 0 -32 -4 -32 -8 0 -5 -16 -7 -35 -6 -23 2 -38 -2 -41 -11
-3 -8 -15 -12 -30 -9 -15 3 -36 -3 -54 -16 -16 -11 -32 -20 -37 -19 -4 1 -19
1 -33 0 -18 -1 -21 -4 -11 -10 9 -6 10 -11 2 -15 -6 -4 -15 -5 -19 -2 -5 3 -9
-1 -9 -9 0 -8 5 -11 10 -8 5 3 14 -1 19 -8 8 -11 9 -10 4 4 -3 9 -1 17 4 17 6
0 10 -3 11 -7 0 -5 2 -16 4 -26 3 -14 -1 -16 -17 -11 -15 4 -18 3 -13 -6 6 -9
4 -11 -4 -5 -8 4 -18 -1 -27 -14 -14 -20 -65 -25 -54 -5 3 5 8 8 12 7 4 -2 5
4 2 12 -8 20 -17 19 -33 -4 -11 -15 -20 -17 -49 -10 -25 5 -39 4 -45 -4 -6 -8
-7 -6 -4 5 4 12 -2 18 -24 23 -17 4 -29 13 -29 22 0 12 8 14 35 10 19 -3 35
-2 35 3 0 5 7 7 15 4 8 -4 15 -1 15 5 0 6 6 8 14 5 8 -3 29 2 48 12 30 15 31
18 13 24 -11 4 -21 3 -23 -1 -2 -5 -19 -9 -37 -9 -47 0 -65 -9 -59 -28 5 -13
2 -13 -10 2 -12 15 -19 17 -27 9 -6 -6 -18 -9 -25 -6 -8 3 -14 -1 -14 -11 0
-9 -5 -16 -11 -16 -5 0 -7 -5 -4 -10 4 -6 11 -8 16 -5 11 8 12 -5 0 -23 -11
-18 -80 -25 -97 -11 -11 9 -14 8 -14 -1 0 -8 -6 -9 -17 -5 -29 12 -56 13 -80
2 -23 -10 -32 -37 -13 -37 6 0 5 -8 -2 -19 -7 -11 -16 -17 -21 -14 -5 3 -3 9
4 14 11 7 10 9 -4 9 -10 0 -16 4 -13 8 2 4 -11 8 -29 8 -21 0 -30 -3 -22 -8 9
-6 8 -8 -3 -8 -23 0 -47 19 -35 27 14 11 17 33 5 33 -5 0 -10 -7 -10 -15 0
-20 -19 -19 -42 2 -10 9 -18 11 -18 5 0 -8 -8 -8 -30 0 -17 5 -38 7 -47 4 -14
-6 -14 -8 3 -21 19 -13 18 -14 -4 -35 -12 -12 -32 -20 -44 -18 -28 4 -36 28
-10 28 20 0 36 23 25 34 -15 15 -55 5 -60 -14 -6 -24 -6 -24 -62 -4 -39 13
-46 13 -68 -1 -18 -12 -22 -20 -14 -29 12 -14 57 -10 79 7 8 6 12 6 12 -1 0
-5 8 -8 19 -5 12 3 24 -3 33 -16 8 -12 18 -18 21 -14 4 3 7 -3 7 -15 0 -12 -4
-22 -10 -22 -5 0 -10 5 -10 10 0 6 -7 10 -15 10 -9 0 -12 -6 -8 -17 4 -11 3
-14 -5 -9 -7 4 -12 16 -12 27 0 19 -1 19 -16 4 -11 -10 -20 -13 -28 -6 -6 5
-24 12 -39 15 -35 6 -47 14 -47 32 0 15 -35 18 -89 8 -33 -7 -42 -28 -16 -38
8 -3 15 -11 15 -18 0 -6 -12 0 -27 14 -27 25 -29 25 -63 10 -19 -8 -45 -14
-57 -13 -13 1 -23 -2 -23 -8 0 -6 9 -11 20 -11 18 0 26 -16 21 -44 -1 -4 11
-19 26 -32 15 -13 24 -24 19 -24 -4 0 -29 18 -55 39 -40 33 -57 41 -109 47
-41 4 -62 3 -62 -4 0 -6 10 -12 23 -14 28 -4 34 -48 6 -48 -11 0 -19 5 -19 10
0 6 -12 9 -27 8 -22 -2 -29 -9 -33 -33 -6 -30 -6 -30 -21 15 -10 27 -23 46
-34 48 -10 2 -15 0 -11 -6 3 -6 2 -13 -4 -17 -5 -3 -10 -2 -10 3 0 12 -38 23
-45 12 -2 -4 -25 -10 -50 -13 -51 -5 -66 -14 -46 -26 9 -6 8 -10 -7 -13 -15
-4 -19 -2 -15 8 6 17 -23 19 -33 2 -4 -7 -3 -8 4 -4 7 4 12 3 12 -2 0 -6 -17
-8 -40 -5 -27 4 -40 2 -40 -6 0 -7 4 -10 9 -7 5 4 8 -2 7 -11 -3 -22 -37 -28
-76 -14 -21 7 -42 6 -71 -2 -40 -12 -41 -13 -25 -30 10 -9 15 -18 12 -18 -3
-1 -11 -2 -16 -3 -6 0 -14 -7 -19 -14 -6 -10 -11 -9 -22 4 -13 16 -12 17 6 10
15 -5 17 -4 8 4 -18 20 -91 3 -99 -23 -6 -19 -8 -19 -19 -4 -16 23 -32 21 -40
-3 -4 -11 -12 -20 -18 -19 -32 4 -58 -2 -56 -13 6 -45 0 -49 -50 -36 -8 1 -17
-5 -19 -14 -3 -17 136 -18 2812 -18 l2816 0 -2 492 -3 492 -27 7 c-15 4 -37 5
-49 2 -21 -6 -21 -6 2 -19 18 -10 20 -13 7 -14 -9 0 -23 6 -30 14 -12 11 -17
11 -33 0 -22 -16 -40 -8 -24 12 13 15 5 17 -26 5 -11 -5 -33 -3 -50 4 -34 14
-91 11 -112 -7 -12 -9 -13 -6 -9 16 3 15 10 34 17 42 8 10 8 14 0 14 -6 0 -11
-3 -11 -7 0 -11 -44 -30 -58 -25 -16 5 -15 20 2 38 21 20 28 17 16 -6 -11 -21
-4 -25 19 -11 7 5 11 14 7 20 -5 7 -1 8 9 4 10 -3 20 0 25 7 4 6 19 13 34 13
14 1 26 5 26 10 0 4 10 7 23 7 12 0 29 4 37 10 9 6 20 5 29 -3 10 -8 12 -8 8
-1 -4 7 14 19 49 32 49 18 55 18 50 4 -5 -13 -2 -12 9 2 8 11 15 16 15 10 0
-5 5 -2 10 6 8 12 12 13 19 2 14 -23 21 23 21 147 0 113 0 113 -22 107 -13 -3
-26 -6 -30 -6 -5 0 -8 -4 -8 -9 0 -4 12 -6 26 -3 20 4 25 1 22 -9 -6 -18 -56
-18 -85 -1 -14 7 -23 8 -23 2 0 -5 -3 -9 -7 -9 -26 4 -45 -4 -51 -22 -7 -17
-10 -18 -19 -7 -6 7 -13 20 -15 28 -2 8 -7 18 -13 22 -5 4 1 8 15 8 14 0 44 9
65 21 22 11 60 22 83 25 24 2 48 6 53 9 5 4 8 46 8 96 -1 86 -1 89 -22 84 -81
-18 -84 -18 -42 4 21 12 45 21 53 21 9 0 12 11 10 38 -3 36 -4 37 -43 39 -22
0 -49 4 -59 9 -15 6 -17 4 -11 -7 8 -12 6 -12 -8 -1 -9 8 -21 11 -28 7 -6 -4
-32 -7 -58 -7 -25 0 -40 -2 -33 -5 14 -5 17 -33 3 -33 -5 0 -11 5 -13 11 -2 7
-16 1 -32 -15 -28 -26 -39 -30 -63 -27 -7 1 -13 -4 -13 -10 0 -7 -3 -9 -7 -6
-3 4 -11 2 -18 -3 -6 -5 -31 -11 -56 -13 -24 -2 -53 -7 -64 -11 -11 -5 -33
-13 -50 -19 -16 -7 -34 -10 -40 -8 -5 1 -25 3 -42 3 -18 0 -30 4 -27 9 3 5 0
9 -6 9 -7 0 -10 -7 -6 -15 7 -18 -3 -45 -16 -45 -5 0 -6 5 -2 12 5 8 2 9 -10
5 -10 -4 -22 -7 -28 -7 -6 0 -8 -6 -5 -13 3 -8 -5 -14 -22 -15 -14 -1 -21 2
-15 6 17 11 28 52 14 52 -6 0 -9 -4 -6 -9 3 -4 -3 -16 -14 -26 -18 -16 -18
-16 -13 7 4 18 3 20 -6 8 -7 -10 -11 -11 -11 -3 0 18 53 43 77 37 16 -5 20 0
20 24 0 20 -5 28 -13 25 -7 -2 -29 0 -49 6 -29 8 -37 7 -42 -5 -3 -9 -13 -12
-29 -8 -18 5 -31 0 -47 -17 -13 -13 -38 -35 -56 -49 -17 -14 -38 -31 -47 -39
-8 -7 -18 -11 -21 -7 -3 3 -13 0 -21 -7 -13 -10 -15 -9 -9 6 8 21 3 22 -15 3
-19 -19 -58 -30 -58 -17 0 6 6 11 13 11 9 0 9 2 -1 9 -8 4 -14 12 -15 17 -1 5
-5 8 -9 7 -4 -2 -5 4 -2 12 5 13 9 13 27 0 15 -10 25 -11 39 -4 11 6 22 8 25
5 7 -7 33 13 33 25 0 4 -9 11 -21 14 l-21 7 23 24 c12 13 17 24 10 24 -6 0
-14 -7 -17 -15 -4 -10 -11 -12 -18 -7 -12 10 -88 8 -105 -2 -6 -4 -11 -3 -11
3 0 6 -23 9 -53 8 -51 -2 -54 -3 -54 -30 0 -22 4 -26 18 -22 22 7 79 -21 79
-38 0 -8 -3 -8 -9 2 -7 11 -9 11 -14 0 -4 -11 -9 -10 -21 5 -17 22 -22 6 -7
-23 7 -13 5 -17 -9 -17 -10 0 -16 5 -14 11 2 5 -7 15 -21 22 -21 9 -25 9 -25
-5 0 -15 -2 -15 -10 -2 -5 8 -7 23 -4 33 3 9 0 17 -6 17 -6 0 -9 -4 -6 -9 5
-8 -25 -12 -89 -12 -11 0 -21 5 -23 11 -2 5 -14 10 -27 10 -13 0 -27 5 -30 10
-4 6 -15 8 -25 5 -13 -4 -26 1 -37 14 -10 12 -21 21 -26 21 -5 0 -4 -7 3 -15
19 -23 -12 -19 -44 6 -14 11 -26 16 -26 10 0 -13 -39 6 -56 28 -6 8 -18 11
-27 8 -21 -8 -34 12 -16 24 9 6 0 8 -28 6 -23 -2 -47 0 -54 4 -7 4 -22 3 -32
-3 -14 -7 -17 -7 -13 1 7 11 3 15 -6 6z m62 -35 c0 -5 -5 -10 -11 -10 -5 0 -7
5 -4 10 3 6 8 10 11 10 2 0 4 -4 4 -10z m-162 -41 c2 -5 10 -9 18 -9 7 0 28
-9 46 -20 18 -11 29 -20 23 -20 -15 0 -83 25 -91 33 -4 4 -17 7 -28 8 -13 0
-16 3 -7 6 11 5 11 7 0 15 -10 6 -6 7 11 2 14 -4 27 -11 28 -15z m162 -61 c0
-15 -27 -8 -45 12 -17 19 -17 19 14 7 17 -6 31 -15 31 -19z m1694 7 c-7 -16
-44 -21 -44 -6 0 8 16 16 42 20 4 0 5 -6 2 -14z m-2274 -3 c0 -5 -13 -7 -30
-4 -16 2 -30 6 -30 8 0 2 14 4 30 4 17 0 30 -4 30 -8z m41 -21 c-10 -6 -9 -10
4 -15 9 -3 21 -4 26 0 5 3 9 -4 9 -15 0 -15 -6 -19 -25 -16 -27 3 -47 15 -25
15 9 0 8 5 -4 19 -17 18 -17 19 1 23 23 5 31 -1 14 -11z m357 -6 c-3 -3 -9 2
-12 12 -6 14 -5 15 5 6 7 -7 10 -15 7 -18z m257 4 c-3 -4 -12 -6 -20 -3 -8 4
-13 10 -10 15 3 4 12 6 20 3 8 -4 13 -10 10 -15z m1529 1 c-22 -9 -29 -6 -20
9 4 6 14 7 23 4 15 -6 14 -7 -3 -13z m-2549 -10 c8 -13 -5 -13 -25 0 -13 8
-13 10 2 10 9 0 20 -4 23 -10z m237 0 c2 -6 20 -13 42 -15 21 -3 45 -10 55
-15 12 -8 9 -9 -13 -4 -25 6 -28 5 -21 -15 9 -29 -12 -27 -37 4 -11 14 -24 22
-30 19 -7 -4 -8 -2 -4 5 4 7 -2 15 -16 20 -23 10 -23 10 -1 10 12 1 23 -4 25
-9z m373 -8 c53 1 57 -1 51 -29 -3 -16 -3 -23 0 -16 3 7 12 9 21 6 11 -4 14
-2 9 5 -4 7 -3 12 3 12 5 0 13 -9 16 -20 4 -13 15 -20 33 -20 20 0 23 -3 13
-9 -9 -6 -22 -6 -32 0 -24 12 -42 11 -33 -2 4 -8 0 -8 -15 0 -14 8 -21 8 -21
1 0 -20 -59 -11 -70 11 -7 11 -14 18 -17 15 -3 -2 -16 -1 -29 4 -19 7 -24 6
-24 -5 0 -8 5 -15 12 -15 6 0 9 -3 5 -6 -3 -3 -12 -2 -19 2 -7 5 -17 9 -23 10
-5 0 -16 2 -22 2 -7 1 -13 14 -13 28 0 22 3 25 23 20 12 -3 33 -8 47 -11 24
-5 24 -4 -3 8 -38 18 -25 26 26 17 23 -5 51 -8 62 -8z m125 9 c0 -5 -7 -12
-16 -15 -14 -5 -15 -4 -4 9 14 17 20 19 20 6z m880 5 c0 -3 -4 -8 -10 -11 -5
-3 -10 -1 -10 4 0 6 5 11 10 11 6 0 10 -2 10 -4z m-785 -17 c11 -16 1 -19 -13
-3 -7 8 -8 14 -3 14 5 0 13 -5 16 -11z m99 3 c2 -4 -1 -14 -7 -22 -10 -13 -15
-12 -34 7 l-22 23 29 0 c16 0 31 -3 34 -8z m69 -3 c21 0 21 -1 2 -9 -32 -14
-55 -11 -55 6 0 11 5 14 16 10 9 -3 25 -6 37 -7z m872 1 c-3 -5 -12 -10 -18
-10 -7 0 -6 4 3 10 19 12 23 12 15 0z m728 -10 c-15 -14 -56 -23 -49 -11 4 6
1 11 -6 12 -7 1 -2 4 12 8 28 9 56 2 43 -9z m58 1 c-13 -10 -21 -23 -17 -30 4
-6 5 -11 1 -11 -3 0 -9 10 -14 23 -9 25 2 37 34 37 19 0 18 -2 -4 -19z m86 13
c-3 -3 -12 -4 -19 -1 -8 3 -5 6 6 6 11 1 17 -2 13 -5z m-2550 -19 c0 -8 -4
-15 -9 -15 -4 0 -8 7 -8 15 0 8 4 15 8 15 5 0 9 -7 9 -15z m2083 -11 c0 -8 -8
-17 -17 -20 -10 -3 -26 -10 -36 -15 -11 -6 -22 -8 -25 -5 -3 3 0 6 6 6 7 0 12
4 12 10 0 11 -59 2 -78 -13 -9 -7 -11 -6 -6 7 3 9 12 16 20 16 8 0 13 5 12 12
-2 7 7 13 20 14 12 1 25 3 27 6 11 10 65 -5 65 -18z m100 6 c0 -9 -25 -20 -48
-20 -13 0 -12 3 4 19 18 17 44 18 44 1z m70 16 c0 -2 -7 -7 -16 -10 -8 -3 -12
-2 -9 4 6 10 25 14 25 6z m-1380 -16 c8 -5 11 -10 5 -10 -5 0 -17 5 -25 10 -8
5 -10 10 -5 10 6 0 17 -5 25 -10z m159 -6 c2 -2 2 -6 -1 -9 -8 -9 -58 6 -58
16 0 8 48 2 59 -7z m154 -2 c-2 -7 6 -12 18 -12 12 0 17 4 13 11 -4 8 4 9 27
4 19 -4 37 -9 42 -12 12 -7 -2 -23 -16 -17 -7 2 -41 6 -74 7 -49 2 -60 0 -51
-10 12 -15 -3 -18 -17 -4 -6 5 -19 11 -29 13 -11 1 -20 11 -22 21 -2 16 4 18
54 15 38 -2 56 -8 55 -16z m-373 -2 c0 -5 -2 -10 -4 -10 -3 0 -8 5 -11 10 -3
6 -1 10 4 10 6 0 11 -4 11 -10z m601 -5 c5 4 6 -1 2 -10 -5 -13 -7 -14 -14 -3
-5 7 -8 18 -8 23 0 6 3 4 6 -3 2 -6 9 -10 14 -7z m340 -8 c-10 -9 -11 -8 -5 6
3 10 9 15 12 12 3 -3 0 -11 -7 -18z m189 16 c-8 -3 -17 -9 -20 -13 -3 -4 -15
-10 -27 -14 -17 -5 -23 -3 -23 8 0 14 23 23 65 24 14 0 15 -1 5 -5z m-1010
-13 c0 -5 -2 -10 -4 -10 -3 0 -8 5 -11 10 -3 6 -1 10 4 10 6 0 11 -4 11 -10z
m1310 6 c0 -3 -4 -8 -10 -11 -5 -3 -10 -1 -10 4 0 6 5 11 10 11 6 0 10 -2 10
-4z m-2035 -16 c3 -5 -1 -10 -10 -10 -9 0 -13 5 -10 10 3 6 8 10 10 10 2 0 7
-4 10 -10z m555 -10 c12 -7 10 -9 -8 -7 -12 0 -22 5 -22 9 0 11 12 10 30 -2z
m1670 6 c0 -3 -4 -8 -10 -11 -5 -3 -10 -1 -10 4 0 6 5 11 10 11 6 0 10 -2 10
-4z m-2265 -36 c18 -20 18 -21 -1 -14 -10 4 -28 13 -39 21 -19 13 -19 13 1 13
12 0 29 -9 39 -20z m433 -10 c11 -11 34 -22 52 -25 18 -2 48 -11 67 -20 37
-18 55 -23 88 -24 12 -1 16 -4 9 -9 -6 -4 -18 -20 -26 -36 -14 -27 -16 -28
-22 -10 -7 24 -60 46 -75 31 -5 -5 -24 -11 -42 -12 -24 -1 -39 6 -61 28 -21
23 -25 33 -16 39 10 6 10 8 0 8 -8 0 -30 8 -50 18 l-37 17 40 6 c22 3 43 7 47
8 4 0 16 -8 26 -19z m-100 -27 c20 -21 33 -35 28 -30 -6 4 -18 7 -29 7 -10 0
-15 5 -12 10 6 10 -41 35 -58 31 -5 -1 -6 3 -2 9 12 19 35 10 73 -27z m77 -73
c3 -6 -1 -7 -9 -4 -18 7 -21 14 -7 14 6 0 13 -4 16 -10z m388 -20 c20 -8 37
-18 37 -22 0 -4 7 -8 15 -8 8 0 15 -5 15 -11 0 -6 -8 -8 -19 -4 -35 11 -66 17
-87 19 -15 1 -20 7 -19 21 3 26 4 27 13 23 4 -2 24 -10 45 -18z m1287 5 c0 -8
0 -18 0 -22 0 -3 -14 -7 -32 -9 -18 -1 -46 -7 -61 -13 -35 -13 -37 -14 -37 -1
0 6 6 10 14 10 8 0 16 3 18 8 4 9 69 40 86 41 6 1 12 -6 12 -14z m-1365 -15
c3 -6 -1 -7 -9 -4 -18 7 -21 14 -7 14 6 0 13 -4 16 -10z m1412 4 c-3 -3 -12
-4 -19 -1 -8 3 -5 6 6 6 11 1 17 -2 13 -5z m28 -14 c-3 -5 -12 -10 -18 -10 -7
0 -6 4 3 10 19 12 23 12 15 0z m-1202 -107 c-7 -2 -19 -2 -25 0 -7 3 -2 5 12
5 14 0 19 -2 13 -5z m-133 -178 c12 -15 6 -35 -11 -35 -6 0 -7 5 -4 10 4 6 1
17 -5 25 -7 9 -8 15 -2 15 5 0 15 -7 22 -15z m1057 -21 c-3 -3 -12 -4 -19 -1
-8 3 -5 6 6 6 11 1 17 -2 13 -5z m-1107 -56 c0 -6 -3 -8 -7 -5 -3 4 -12 2 -20
-4 -8 -8 -13 -8 -13 -1 0 10 15 19 33 21 4 1 7 -4 7 -11z m-358 -175 c8 3 15
-1 15 -8 0 -7 -6 -11 -14 -9 -7 2 -20 6 -29 9 -8 3 -12 10 -8 16 5 8 9 8 14
-1 4 -7 14 -10 22 -7z m-58 -18 c-4 -8 -12 -15 -19 -15 -7 0 -15 -4 -17 -9 -1
-4 -12 1 -23 11 -13 13 -15 17 -4 13 8 -3 26 -1 40 4 13 5 25 10 26 10 1 1 0
-6 -3 -14z m-207 -8 c0 -7 -9 -14 -20 -14 -19 -2 -19 -2 -1 12 11 8 19 15 20
15 0 0 1 -6 1 -13z m-427 -137 c0 -5 -2 -10 -4 -10 -3 0 -8 5 -11 10 -3 6 -1
10 4 10 6 0 11 -4 11 -10z m-84 -37 c-4 -4 -11 -1 -16 7 -16 25 -11 35 7 17 9
-9 13 -20 9 -24z m34 27 c0 -5 -4 -10 -10 -10 -5 0 -10 5 -10 10 0 6 5 10 10
10 6 0 10 -4 10 -10z m130 -20 c10 -6 11 -10 3 -10 -7 0 -12 -3 -12 -7 4 -22
-3 -32 -16 -27 -21 8 -19 25 3 18 16 -5 16 -5 0 9 -26 21 -7 36 22 17z m-50
-25 c0 -2 -10 -9 -22 -15 -22 -11 -22 -10 -4 4 21 17 26 19 26 11z m-46 -31
c8 -21 -12 -17 -24 6 -8 16 -8 18 4 14 8 -3 17 -12 20 -20z m-313 -20 c13 -16
5 -18 -19 -5 -9 5 -26 5 -36 2 -18 -7 -18 -8 4 -29 13 -12 19 -22 12 -22 -6 0
-21 10 -33 23 -12 12 -19 17 -15 10 4 -8 -1 -11 -14 -10 -13 1 -20 8 -20 21 0
11 3 17 6 13 4 -3 12 0 19 7 16 15 80 9 96 -10z m379 8 c0 -12 -3 -12 -17 -1
-10 7 -20 14 -22 16 -2 1 6 1 18 0 11 -1 21 -8 21 -15z m48 -38 c-4 -3 -12 5
-18 18 -12 22 -12 22 6 6 10 -10 15 -20 12 -24z m-558 3 c0 -13 6 -29 13 -36
10 -10 9 -11 -5 -6 -10 4 -18 11 -18 16 0 13 -37 11 -46 -2 -4 -7 -9 -8 -17 0
-7 7 -6 15 3 26 10 12 15 13 20 4 4 -6 13 -8 20 -4 9 6 9 9 -1 16 -10 6 -8 9
9 9 16 0 22 -6 22 -23z m-125 -57 c-3 -5 -11 -10 -16 -10 -6 0 -7 5 -4 10 3 6
11 10 16 10 6 0 7 -4 4 -10z m991 -205 c9 -22 19 -32 28 -29 14 5 26 -23 26
-63 0 -29 -17 -29 -74 -2 -43 20 -77 59 -39 45 14 -6 13 -2 -5 17 -32 34 -28
55 11 60 17 2 33 5 35 5 2 1 10 -14 18 -33z m-2609 -15 c8 -12 9 -21 3 -25 -6
-3 -10 1 -10 9 0 9 -5 16 -11 16 -5 0 -8 -4 -5 -8 3 -5 -1 -9 -8 -9 -11 0 -13
13 -7 35 3 10 28 -2 38 -18z m713 10 c0 -5 -15 -10 -32 -9 -31 1 -32 1 -8 9
35 11 40 11 40 0z m-310 -35 c0 -28 -17 -34 -27 -9 -3 9 0 20 8 25 19 12 19
12 19 -16z m-567 -40 c4 -8 2 -17 -3 -20 -6 -4 -10 3 -10 14 0 25 6 27 13 6z
m-173 -15 c0 -5 -7 -7 -15 -4 -8 4 -15 8 -15 10 0 2 7 4 15 4 8 0 15 -4 15
-10z m665 -14 c7 3 16 1 20 -5 3 -7 0 -8 -10 -5 -11 5 -14 2 -9 -12 5 -18 5
-18 -10 0 -9 11 -20 15 -28 10 -9 -5 -9 -2 2 10 8 10 16 13 18 8 2 -6 9 -9 17
-6z m-338 -44 c-11 -2 -24 1 -31 8 -8 8 -7 9 7 4 14 -5 16 -2 10 12 -6 16 -5
16 13 -2 19 -18 19 -19 1 -22z m-570 -14 c-3 -8 -6 -5 -6 6 -1 11 2 17 5 13 3
-3 4 -12 1 -19z m3461 -9 c-17 -10 -28 -2 -21 17 4 11 8 12 20 3 11 -10 11
-14 1 -20z"/>
<path d="M6726 1535 c4 -8 7 -15 9 -15 2 0 5 7 9 15 3 9 0 15 -9 15 -9 0 -12
-6 -9 -15z"/>
<path d="M6900 1420 c0 -5 10 -10 23 -10 18 0 19 2 7 10 -19 13 -30 13 -30 0z"/>
<path d="M5685 1734 c14 -14 32 -24 41 -22 22 4 -20 48 -47 48 -18 0 -18 -2 6
-26z"/>
<path d="M7456 1752 c-2 -4 3 -16 11 -27 12 -16 14 -16 10 -3 -4 11 0 21 11
27 15 9 14 10 -5 11 -12 0 -24 -3 -27 -8z"/>
<path d="M8268 1744 c24 -17 39 -14 27 5 -3 6 -16 11 -28 11 l-21 0 22 -16z"/>
<path d="M7390 1739 c0 -5 9 -9 20 -9 11 0 20 2 20 4 0 2 -9 6 -20 9 -11 3
-20 1 -20 -4z"/>
<path d="M8110 1740 c0 -5 5 -10 11 -10 5 0 7 5 4 10 -3 6 -8 10 -11 10 -2 0
-4 -4 -4 -10z"/>
<path d="M8337 1742 c-9 -2 -15 -8 -12 -13 4 -5 -3 -9 -14 -9 -22 0 -29 -24
-9 -36 6 -4 8 -3 4 4 -4 7 11 9 46 6 48 -3 50 -2 21 7 -34 10 -43 24 -20 32
18 6 5 14 -16 9z"/>
<path d="M4354 1732 c5 -7 -1 -15 -15 -20 l-23 -9 25 -7 c13 -5 28 -8 33 -7 4
1 15 -6 23 -16 10 -13 16 -15 19 -5 3 6 10 12 16 12 5 0 8 -6 5 -12 -3 -11 42
-48 59 -48 4 0 3 8 -1 18 -4 9 -8 25 -11 36 -2 10 -5 19 -6 20 -2 1 -16 10
-31 20 -32 20 -70 30 -62 15 9 -13 -9 -11 -24 4 -11 10 -13 9 -7 -1z"/>
<path d="M7260 1732 c0 -5 7 -9 15 -9 8 0 12 4 9 9 -3 4 -9 8 -15 8 -5 0 -9
-4 -9 -8z"/>
<path d="M7190 1720 c19 -13 30 -13 30 0 0 6 -10 10 -22 10 -19 0 -20 -2 -8
-10z"/>
<path d="M7497 1724 c-10 -11 3 -24 24 -24 23 0 25 15 3 24 -19 7 -19 7 -27 0z"/>
<path d="M8215 1720 c-18 -7 -19 -8 -2 -15 21 -9 50 1 42 15 -7 12 -13 12 -40
0z"/>
<path d="M8530 1720 c0 -13 11 -13 30 0 12 8 11 10 -7 10 -13 0 -23 -4 -23
-10z"/>
<path d="M7395 1711 c-6 -5 -19 -12 -30 -15 -11 -3 3 -4 32 -2 33 2 50 -1 46
-7 -3 -6 -1 -7 5 -3 7 4 12 14 12 22 0 16 -50 20 -65 5z"/>
<path d="M7780 1710 c0 -12 17 -12 45 0 17 7 15 9 -12 9 -18 1 -33 -3 -33 -9z"/>
<path d="M7935 1710 c3 -5 10 -10 16 -10 5 0 9 5 9 10 0 6 -7 10 -16 10 -8 0
-12 -4 -9 -10z"/>
<path d="M7885 1690 c3 -5 13 -10 21 -10 8 0 12 5 9 10 -3 6 -13 10 -21 10 -8
0 -12 -4 -9 -10z"/>
<path d="M8418 1693 c7 -3 16 -2 19 1 4 3 -2 6 -13 5 -11 0 -14 -3 -6 -6z"/>
<path d="M7940 1680 c0 -5 7 -10 16 -10 8 0 12 5 9 10 -3 6 -10 10 -16 10 -5
0 -9 -4 -9 -10z"/>
<path d="M8445 1680 c-3 -5 -2 -10 4 -10 5 0 13 5 16 10 3 6 2 10 -4 10 -5 0
-13 -4 -16 -10z"/>
<path d="M6666 1664 c-8 -22 -4 -25 11 -9 7 8 9 16 4 19 -5 3 -12 -1 -15 -10z"/>
<path d="M7526 1671 c9 -9 34 -9 34 -1 0 5 -9 8 -20 7 -10 -1 -17 -3 -14 -6z"/>
<path d="M8190 1672 c0 -5 7 -9 15 -9 8 0 12 4 9 9 -3 4 -9 8 -15 8 -5 0 -9
-4 -9 -8z"/>
<path d="M7875 1650 c3 -5 10 -10 16 -10 5 0 9 5 9 10 0 6 -7 10 -16 10 -8 0
-12 -4 -9 -10z"/>
<path d="M7865 1620 c-11 -18 5 -30 25 -18 10 7 16 16 14 20 -7 11 -32 10 -39
-2z"/>
<path d="M4660 1602 c0 -12 19 -26 26 -19 2 2 -2 10 -11 17 -9 8 -15 8 -15 2z"/>
<path d="M5065 1560 c-3 -5 -1 -10 4 -10 6 0 11 5 11 10 0 6 -2 10 -4 10 -3 0
-8 -4 -11 -10z"/>
<path d="M6095 1540 c3 -5 8 -10 11 -10 2 0 4 5 4 10 0 6 -5 10 -11 10 -5 0
-7 -4 -4 -10z"/>
<path d="M4990 1461 c0 -9 52 -22 60 -15 7 7 -23 24 -42 24 -10 0 -18 -4 -18
-9z"/>
<path d="M5482 1433 c-6 -2 -10 -9 -6 -14 3 -5 -2 -9 -10 -9 -9 0 -16 -4 -16
-8 0 -10 30 -9 48 2 6 4 18 4 25 0 6 -4 3 2 -7 14 -11 12 -20 22 -20 21 -1 0
-7 -3 -14 -6z"/>
<path d="M6080 1426 c0 -4 9 -6 21 -3 16 4 18 3 8 -9 -7 -8 -22 -12 -38 -9
-14 3 -20 2 -13 -1 9 -4 10 -10 2 -19 -8 -10 -1 -12 32 -9 53 4 101 12 152 25
28 8 36 13 27 22 -13 13 -191 16 -191 3z"/>
<path d="M5256 1403 c9 -7 21 -10 26 -7 14 9 -1 23 -23 21 -19 -1 -19 -2 -3
-14z"/>
<path d="M5305 1400 c-3 -5 -1 -10 4 -10 6 0 11 5 11 10 0 6 -2 10 -4 10 -3 0
-8 -4 -11 -10z"/>
<path d="M6429 1369 c35 -16 66 -27 68 -25 11 10 -10 25 -54 40 -75 26 -83 17
-14 -15z"/>
<path d="M6284 1348 c-4 -7 -3 -8 5 -4 6 4 23 0 36 -8 28 -19 32 -15 9 8 -18
19 -40 21 -50 4z"/>
<path d="M6365 1330 c3 -5 11 -10 16 -10 6 0 7 5 4 10 -3 6 -11 10 -16 10 -6
0 -7 -4 -4 -10z"/>
<path d="M5920 1320 c-13 -8 -12 -10 3 -10 9 0 17 5 17 10 0 12 -1 12 -20 0z"/>
<path d="M6330 1260 c0 -5 12 -10 26 -10 14 0 23 4 19 10 -3 6 -15 10 -26 10
-10 0 -19 -4 -19 -10z"/>
<path d="M6563 1246 c2 -19 -3 -21 -43 -19 -43 2 -43 2 -15 -8 50 -17 188 -50
192 -45 2 2 -16 12 -41 22 -25 11 -46 23 -46 27 0 5 6 5 13 1 9 -5 9 -3 -1 7
-11 12 -14 12 -21 0 -11 -16 -23 1 -16 21 4 9 0 15 -9 15 -9 0 -14 -8 -13 -21z"/>
<path d="M6480 1151 c0 -5 9 -7 20 -4 11 3 20 7 20 9 0 2 -9 4 -20 4 -11 0
-20 -4 -20 -9z"/>
<path d="M6487 1119 c7 -7 15 -10 18 -7 3 3 -2 9 -12 12 -14 6 -15 5 -6 -5z"/>
<path d="M6834 994 c3 -8 6 -18 6 -20 0 -2 9 -4 19 -4 25 0 37 18 22 33 -9 9
-11 8 -6 -5 4 -11 2 -18 -4 -18 -6 0 -11 4 -11 9 0 5 -7 12 -16 15 -12 5 -15
2 -10 -10z"/>
<path d="M6764 877 c-4 -6 -4 -9 1 -5 4 4 14 3 22 -4 7 -6 15 -9 18 -7 2 3 -4
10 -15 17 -15 9 -21 9 -26 -1z"/>
<path d="M5480 525 c0 -9 6 -12 15 -9 8 4 15 7 15 9 0 2 -7 5 -15 9 -9 3 -15
0 -15 -9z"/>
<path d="M5051 457 c-13 -21 -12 -21 5 -5 10 10 16 20 13 22 -3 3 -11 -5 -18
-17z"/>
<path d="M5107 461 c-3 -13 1 -21 13 -24 23 -6 47 8 31 17 -6 4 -16 4 -23 0
-6 -4 -8 -3 -4 4 3 6 2 13 -3 16 -5 3 -11 -3 -14 -13z"/>
<path d="M5160 471 c0 -5 6 -11 13 -14 8 -3 14 1 14 9 0 8 -6 14 -14 14 -7 0
-13 -4 -13 -9z"/>
<path d="M5205 470 c3 -5 8 -10 11 -10 2 0 4 5 4 10 0 6 -5 10 -11 10 -5 0 -7
-4 -4 -10z"/>
<path d="M5360 445 c0 -8 9 -15 20 -15 11 0 20 2 20 5 0 2 -9 9 -20 15 -16 9
-20 8 -20 -5z"/>
<path d="M5005 440 c3 -5 10 -10 16 -10 5 0 9 5 9 10 0 6 -7 10 -16 10 -8 0
-12 -4 -9 -10z"/>
<path d="M4758 383 c7 -3 16 -2 19 1 4 3 -2 6 -13 5 -11 0 -14 -3 -6 -6z"/>
<path d="M3700 190 c0 -5 7 -10 16 -10 8 0 12 5 9 10 -3 6 -10 10 -16 10 -5 0
-9 -4 -9 -10z"/>
</g>
</svg>
